<?xml version="1.0" standalone="no"?>
<!DOCTYPE svg PUBLIC "-//W3C//DTD SVG 1.1//EN" "http://www.w3.org/Graphics/SVG/1.1/DTD/svg11.dtd">
<!--Generator: Xara Xtreme (www.xara.com), SVG filter version: 1.0.0.13-->
<svg stroke-width="0.501" stroke-linejoin="bevel" fill-rule="evenodd" xmlns:xlink="http://www.w3.org/1999/xlink" xmlns="http://www.w3.org/2000/svg" version="1.1" overflow="visible" width="37.5pt" height="37.5pt" viewBox="0 0 37.5 37.5">
 <defs>
  <marker id="DefaultArrow2" markerUnits="strokeWidth" viewBox="0 0 1 1" markerWidth="1" markerHeight="1" overflow="visible" orient="auto">
   <!-- REF_ARROW_STRAIGHT (-2) -->
   <g transform="scale(0.0092592592)">
    <!-- 1/108 -->
    <path d="M -9 54 L -9 -54 L 117 0 z"/>
   </g>
  </marker>
  <marker id="DefaultArrow3" markerUnits="strokeWidth" viewBox="0 0 1 1" markerWidth="1" markerHeight="1" overflow="visible" orient="auto">
   <!-- REF_ARROW_ANGLED -->
   <g transform="scale(0.0092592592)">
    <path d="M -27 54 L -9 0 L -27 -54 L 135 0 z"/>
   </g>
  </marker>
  <marker id="DefaultArrow4" markerUnits="strokeWidth" viewBox="0 0 1 1" markerWidth="1" markerHeight="1" overflow="visible" orient="auto">
   <!-- REF_ARROW_ROUNDED -->
   <g transform="scale(0.0092592592)">
    <path d="M -9,0 L -9,-45 C -9,-51.708 2.808,-56.580 9,-54 L 117,-9 C 120.916,-7.369 126.000,-4.242 126,0 C 126,4.242 120.916,7.369 117,9 L 9,54 C 2.808,56.580 -9,51.708 -9,45 z"/>
   </g>
  </marker>
  <marker id="DefaultArrow5" markerUnits="strokeWidth" viewBox="0 0 1 1" markerWidth="1" markerHeight="1" overflow="visible" orient="auto">
   <!-- REF_ARROW_SPOT -->
   <g transform="scale(0.0092592592)">
    <path d="M -54, 0 C -54,29.807 -29.807,54 0,54 C 29.807,54 54,29.807 54,0 C 54,-29.807 29.807,-54 0,-54 C -29.807,-54 -54,-29.807 -54,0 z"/>
   </g>
  </marker>
  <marker id="DefaultArrow6" markerUnits="strokeWidth" viewBox="0 0 1 1" markerWidth="1" markerHeight="1" overflow="visible" orient="auto">
   <!-- REF_ARROW_DIAMOND -->
   <g transform="scale(0.0092592592)">
    <path d="M -63,0 L 0,63 L 63,0 L 0,-63 z"/>
   </g>
  </marker>
  <marker id="DefaultArrow7" markerUnits="strokeWidth" viewBox="0 0 1 1" markerWidth="1" markerHeight="1" overflow="visible" orient="auto">
   <!-- REF_ARROW_FEATHER -->
   <g transform="scale(0.0092592592)">
    <path d="M 18,-54 L 108,-54 L 63,0 L 108,54 L 18, 54 L -36,0 z"/>
   </g>
  </marker>
  <marker id="DefaultArrow8" markerUnits="strokeWidth" viewBox="0 0 1 1" markerWidth="1" markerHeight="1" overflow="visible" orient="auto">
   <!-- REF_ARROW_FEATHER2 -->
   <g transform="scale(0.0092592592)">
    <path d="M -36,0 L 18,-54 L 54,-54 L 18,-18 L 27,-18 L 63,-54 L 99,-54 L 63,-18 L 72,-18 L 108,-54 L 144,-54 L 90,0 L 144,54 L 108,54 L 72,18 L 63,18 L 99,54 L 63,54 L 27,18 L 18,18 L 54,54 L 18,54 z"/>
   </g>
  </marker>
  <marker id="DefaultArrow9" markerUnits="strokeWidth" viewBox="0 0 1 1" markerWidth="1" markerHeight="1" overflow="visible" orient="auto">
   <!-- REF_ARROW_HOLLOWDIAMOND -->
   <g transform="scale(0.0092592592)">
    <path d="M 0,45 L -45,0 L 0, -45 L 45, 0 z M 0, 63 L-63, 0 L 0, -63 L 63, 0 z"/>
   </g>
  </marker>
  <filter id="StainedFilter">
   <feBlend mode="multiply" in2="BackgroundImage" in="SourceGraphic" result="blend"/>
   <feComposite in="blend" in2="SourceAlpha" operator="in" result="comp"/>
  </filter>
  <filter id="BleachFilter">
   <feBlend mode="screen" in2="BackgroundImage" in="SourceGraphic" result="blend"/>
   <feComposite in="blend" in2="SourceAlpha" operator="in" result="comp"/>
  </filter>
  <filter id="InvertTransparencyBitmapFilter">
   <feComponentTransfer>
    <feFuncR type="gamma" amplitude="1.055" exponent=".416666666" offset="-0.055"/>
    <feFuncG type="gamma" amplitude="1.055" exponent=".416666666" offset="-0.055"/>
    <feFuncB type="gamma" amplitude="1.055" exponent=".416666666" offset="-0.055"/>
   </feComponentTransfer>
   <feComponentTransfer>
    <feFuncR type="linear" slope="-1" intercept="1"/>
    <feFuncG type="linear" slope="-1" intercept="1"/>
    <feFuncB type="linear" slope="-1" intercept="1"/>
    <feFuncA type="linear" slope="1" intercept="0"/>
   </feComponentTransfer>
   <feComponentTransfer>
    <feFuncR type="gamma" amplitude="1" exponent="2.4" offset="0"/>
    <feFuncG type="gamma" amplitude="1" exponent="2.4" offset="0"/>
    <feFuncB type="gamma" amplitude="1" exponent="2.4" offset="0"/>
   </feComponentTransfer>
  </filter>
 </defs>
 <g id="Document" fill="none" stroke="black" font-family="Times New Roman" font-size="16" transform="scale(1 -1)">
  <g id="Spread" transform="translate(0 -37.5)">
   <g id="icons">
    <g id="Group" stroke="none">
     <rect x="-18.748" y="-18.751" width="37.497" height="37.502" transform="translate(18.75 18.75) rotate(90)" stroke-linejoin="miter"/>
     <path d="M 3,9 C 3,11.898 5.351,14.25 8.25,14.25 L 8.593,14.236 C 10.807,14.633 11.673,15.418 11.921,16.062 C 12.055,16.411 12.024,16.727 11.851,17.001 C 11.668,17.29 11.267,17.621 10.5,17.833 C 9.946,17.976 9.463,18.078 9.029,18.036 C 8.973,18.03 8.917,18.031 8.863,18.038 C 8.859,18.037 8.854,18.036 8.85,18.036 C 8.652,18.01 8.452,17.997 8.25,17.997 C 5.764,17.997 3.747,20.014 3.747,22.5 C 3.747,24.985 5.764,27.003 8.25,27.003 C 10.442,27.003 12.268,25.434 12.67,23.358 L 12.669,23.311 C 12.613,23.483 12.655,23.391 12.679,23.291 C 12.83,22.638 13.274,22.12 13.836,21.805 C 14.399,21.489 15.001,21.419 15.437,21.554 C 15.921,22.882 15.81,24.32 14.969,25.645 C 14.913,25.732 14.878,25.827 14.967,25.65 L 14.846,25.74 C 14.01,26.669 13.5,27.901 13.5,29.25 C 13.5,32.148 15.851,34.5 18.75,34.5 C 21.648,34.5 24,32.148 24,29.25 C 24,28.045 23.592,26.933 22.908,26.046 C 22.882,25.986 22.846,25.927 22.802,25.873 C 21.241,23.97 20.531,22.119 21.342,20.21 C 22.29,18.058 25.335,17.055 28.187,17.716 C 28.242,17.729 28.298,17.735 28.354,17.735 C 28.871,17.906 29.424,18 30,18 C 32.898,18 35.25,15.648 35.25,12.75 C 35.25,9.851 32.898,7.5 30,7.5 C 27.915,7.5 26.117,8.715 25.269,10.47 C 25.243,10.503 25.22,10.536 25.2,10.572 C 23.987,12.685 21.468,13.5 19.5,13.5 C 17.334,13.5 15.239,12.177 13.433,8.173 C 13.049,5.677 10.874,3.75 8.25,3.75 C 5.351,3.75 3,6.101 3,9 Z M 11.955,8.422 C 11.97,8.524 12.006,8.618 11.956,8.426 L 11.973,8.555 C 13.364,12.679 16.223,15 19.5,15 C 21.783,15 24.921,14.071 26.501,11.319 L 26.505,11.306 C 26.483,11.369 26.543,11.288 26.587,11.194 C 27.179,9.898 28.486,9 30,9 C 32.069,9 33.75,10.68 33.75,12.75 C 33.75,14.819 32.069,16.5 30,16.5 C 29.527,16.5 29.076,16.412 28.66,16.254 C 28.545,16.21 28.427,16.196 28.314,16.208 C 25.086,15.542 21.281,16.625 19.965,19.615 C 18.924,22.063 19.775,24.339 21.225,26.29 C 21.259,26.407 21.321,26.518 21.414,26.611 C 22.085,27.29 22.5,28.221 22.5,29.25 C 22.5,31.319 20.819,33 18.75,33 C 16.68,33 15,31.319 15,29.25 C 15,28.286 15.363,27.408 15.961,26.743 C 15.981,26.72 15.999,26.697 16.016,26.673 C 16.102,26.616 16.177,26.541 16.236,26.45 C 17.965,23.727 17.348,20.527 14.985,18.248 C 14.687,17.96 14.212,17.969 13.925,18.267 C 13.637,18.565 13.646,19.04 13.944,19.327 C 14.171,19.546 14.379,19.776 14.565,20.013 C 14.057,20.073 13.553,20.243 13.102,20.496 C 12.233,20.984 11.479,21.825 11.218,22.952 C 11.21,22.984 11.205,23.017 11.201,23.05 C 11.2,23.057 11.198,23.065 11.197,23.073 C 10.929,24.457 9.709,25.503 8.25,25.503 C 6.593,25.503 5.247,24.156 5.247,22.5 C 5.247,20.843 6.593,19.497 8.25,19.497 C 8.387,19.497 8.521,19.505 8.651,19.523 C 8.716,19.531 8.781,19.531 8.845,19.523 C 8.858,19.525 8.872,19.527 8.886,19.529 C 9.614,19.599 10.333,19.425 10.887,19.282 C 11.906,19.001 12.679,18.498 13.119,17.802 C 13.569,17.091 13.609,16.272 13.321,15.523 C 12.762,14.07 11.025,12.942 8.699,12.738 C 8.659,12.734 8.619,12.734 8.579,12.737 C 8.567,12.737 8.553,12.737 8.54,12.739 C 8.446,12.746 8.349,12.75 8.25,12.75 C 6.18,12.75 4.5,11.069 4.5,9 C 4.5,6.93 6.18,5.25 8.25,5.25 C 10.123,5.25 11.678,6.626 11.955,8.422 Z" stroke-width="0.5" fill="#515c65" fill-rule="evenodd" marker-start="none" marker-end="none" stroke-miterlimit="79.8403193612775"/>
    </g>
   </g>
  </g>
 </g>
</svg>
