<?xml version="1.0" standalone="no"?>
<!DOCTYPE svg PUBLIC "-//W3C//DTD SVG 1.1//EN" "http://www.w3.org/Graphics/SVG/1.1/DTD/svg11.dtd">
<!--Generator: Xara Xtreme (www.xara.com), SVG filter version: 1.0.0.13-->
<svg stroke-width="0.501" stroke-linejoin="bevel" fill-rule="evenodd" xmlns:xlink="http://www.w3.org/1999/xlink" xmlns="http://www.w3.org/2000/svg" version="1.1" overflow="visible" width="37.5pt" height="37.5pt" viewBox="0 0 37.5 37.5">
 <defs>
  <marker id="DefaultArrow2" markerUnits="strokeWidth" viewBox="0 0 1 1" markerWidth="1" markerHeight="1" overflow="visible" orient="auto">
   <!-- REF_ARROW_STRAIGHT (-2) -->
   <g transform="scale(0.0092592592)">
    <!-- 1/108 -->
    <path d="M -9 54 L -9 -54 L 117 0 z"/>
   </g>
  </marker>
  <marker id="DefaultArrow3" markerUnits="strokeWidth" viewBox="0 0 1 1" markerWidth="1" markerHeight="1" overflow="visible" orient="auto">
   <!-- REF_ARROW_ANGLED -->
   <g transform="scale(0.0092592592)">
    <path d="M -27 54 L -9 0 L -27 -54 L 135 0 z"/>
   </g>
  </marker>
  <marker id="DefaultArrow4" markerUnits="strokeWidth" viewBox="0 0 1 1" markerWidth="1" markerHeight="1" overflow="visible" orient="auto">
   <!-- REF_ARROW_ROUNDED -->
   <g transform="scale(0.0092592592)">
    <path d="M -9,0 L -9,-45 C -9,-51.708 2.808,-56.580 9,-54 L 117,-9 C 120.916,-7.369 126.000,-4.242 126,0 C 126,4.242 120.916,7.369 117,9 L 9,54 C 2.808,56.580 -9,51.708 -9,45 z"/>
   </g>
  </marker>
  <marker id="DefaultArrow5" markerUnits="strokeWidth" viewBox="0 0 1 1" markerWidth="1" markerHeight="1" overflow="visible" orient="auto">
   <!-- REF_ARROW_SPOT -->
   <g transform="scale(0.0092592592)">
    <path d="M -54, 0 C -54,29.807 -29.807,54 0,54 C 29.807,54 54,29.807 54,0 C 54,-29.807 29.807,-54 0,-54 C -29.807,-54 -54,-29.807 -54,0 z"/>
   </g>
  </marker>
  <marker id="DefaultArrow6" markerUnits="strokeWidth" viewBox="0 0 1 1" markerWidth="1" markerHeight="1" overflow="visible" orient="auto">
   <!-- REF_ARROW_DIAMOND -->
   <g transform="scale(0.0092592592)">
    <path d="M -63,0 L 0,63 L 63,0 L 0,-63 z"/>
   </g>
  </marker>
  <marker id="DefaultArrow7" markerUnits="strokeWidth" viewBox="0 0 1 1" markerWidth="1" markerHeight="1" overflow="visible" orient="auto">
   <!-- REF_ARROW_FEATHER -->
   <g transform="scale(0.0092592592)">
    <path d="M 18,-54 L 108,-54 L 63,0 L 108,54 L 18, 54 L -36,0 z"/>
   </g>
  </marker>
  <marker id="DefaultArrow8" markerUnits="strokeWidth" viewBox="0 0 1 1" markerWidth="1" markerHeight="1" overflow="visible" orient="auto">
   <!-- REF_ARROW_FEATHER2 -->
   <g transform="scale(0.0092592592)">
    <path d="M -36,0 L 18,-54 L 54,-54 L 18,-18 L 27,-18 L 63,-54 L 99,-54 L 63,-18 L 72,-18 L 108,-54 L 144,-54 L 90,0 L 144,54 L 108,54 L 72,18 L 63,18 L 99,54 L 63,54 L 27,18 L 18,18 L 54,54 L 18,54 z"/>
   </g>
  </marker>
  <marker id="DefaultArrow9" markerUnits="strokeWidth" viewBox="0 0 1 1" markerWidth="1" markerHeight="1" overflow="visible" orient="auto">
   <!-- REF_ARROW_HOLLOWDIAMOND -->
   <g transform="scale(0.0092592592)">
    <path d="M 0,45 L -45,0 L 0, -45 L 45, 0 z M 0, 63 L-63, 0 L 0, -63 L 63, 0 z"/>
   </g>
  </marker>
  <filter id="StainedFilter">
   <feBlend mode="multiply" in2="BackgroundImage" in="SourceGraphic" result="blend"/>
   <feComposite in="blend" in2="SourceAlpha" operator="in" result="comp"/>
  </filter>
  <filter id="BleachFilter">
   <feBlend mode="screen" in2="BackgroundImage" in="SourceGraphic" result="blend"/>
   <feComposite in="blend" in2="SourceAlpha" operator="in" result="comp"/>
  </filter>
  <filter id="InvertTransparencyBitmapFilter">
   <feComponentTransfer>
    <feFuncR type="gamma" amplitude="1.055" exponent=".416666666" offset="-0.055"/>
    <feFuncG type="gamma" amplitude="1.055" exponent=".416666666" offset="-0.055"/>
    <feFuncB type="gamma" amplitude="1.055" exponent=".416666666" offset="-0.055"/>
   </feComponentTransfer>
   <feComponentTransfer>
    <feFuncR type="linear" slope="-1" intercept="1"/>
    <feFuncG type="linear" slope="-1" intercept="1"/>
    <feFuncB type="linear" slope="-1" intercept="1"/>
    <feFuncA type="linear" slope="1" intercept="0"/>
   </feComponentTransfer>
   <feComponentTransfer>
    <feFuncR type="gamma" amplitude="1" exponent="2.4" offset="0"/>
    <feFuncG type="gamma" amplitude="1" exponent="2.4" offset="0"/>
    <feFuncB type="gamma" amplitude="1" exponent="2.4" offset="0"/>
   </feComponentTransfer>
  </filter>
 </defs>
 <g id="Document" fill="none" stroke="black" font-family="Times New Roman" font-size="16" transform="scale(1 -1)">
  <g id="Spread" transform="translate(0 -37.5)">
   <g id="icons">
    <g id="Group" stroke="none">
     <rect x="-18.748" y="-18.751" width="37.497" height="37.502" transform="translate(18.75 18.75) rotate(90)" stroke-linejoin="miter"/>
     <path d="M 4.942,11.16 C 4.805,11.382 4.684,11.614 4.932,11.185 C 4.655,11.688 4.433,12.147 4.853,11.334 L 4.578,11.855 C 4.536,11.95 4.515,12.048 4.557,11.948 C 3.437,14.503 2.996,16.575 2.996,18.749 C 2.996,20.007 3.143,21.231 3.422,22.403 C 3.469,22.645 3.529,22.886 3.603,23.125 C 3.613,23.159 3.626,23.193 3.642,23.226 C 4.697,26.788 6.98,29.826 9.999,31.848 C 10.343,32.104 10.706,32.345 9.838,31.724 C 10.612,32.244 10.971,32.455 10.364,32.08 C 11.975,33.091 12.954,33.516 13.975,33.81 C 14.349,33.917 14.722,34.005 15.089,34.074 C 16.264,34.353 17.489,34.502 18.749,34.502 C 21.39,34.502 23.88,33.85 26.065,32.7 C 26.584,32.465 27.058,32.185 27.481,31.859 C 31.711,29.035 34.502,24.216 34.502,18.749 C 34.502,10.053 27.444,2.996 18.749,2.996 C 12.803,2.996 7.623,6.295 4.942,11.16 Z M 32.992,18.233 C 30.86,13.951 25.387,9.982 19.21,8.309 C 15.522,7.31 12.008,7.258 9.296,8.084 C 11.811,5.852 15.122,4.496 18.749,4.496 C 26.442,4.496 32.721,10.605 32.992,18.233 Z M 18.817,9.758 C 26.534,11.849 32.439,17.453 32.439,21.948 C 32.439,22.289 32.406,22.61 32.343,22.909 C 32.329,22.97 32.324,23.031 32.327,23.091 C 31.733,24.946 30.769,26.636 29.523,28.075 C 29.528,27.978 29.531,27.879 29.531,27.78 C 29.531,23 23.546,17.937 16.613,16.11 C 13.103,15.186 9.85,15.213 7.431,16.081 C 6.244,16.506 5.237,17.146 4.516,17.982 C 4.63,15.829 5.222,13.803 6.198,11.991 C 7.793,9.344 12.643,8.086 18.817,9.758 Z M 16.23,17.561 C 22.956,19.333 28.031,24.06 28.031,27.78 C 28.031,28.922 27.547,29.89 26.631,30.622 C 25.894,31.112 25.114,31.534 25.364,31.365 L 25.259,31.416 C 25.211,31.436 25.166,31.46 25.24,31.425 C 25.185,31.454 25.213,31.44 25.258,31.416 C 23.758,32.082 22.509,32.5 21.354,32.739 C 21.978,32.125 22.388,31.33 22.475,30.372 C 22.765,27.168 19.347,23.882 15.266,22.709 C 13.19,22.112 11.195,22.124 9.645,22.696 C 8.08,23.273 6.918,24.456 6.766,26.147 C 6.757,26.244 6.751,26.342 6.749,26.44 C 5.903,25.123 5.267,23.658 4.891,22.093 C 4.838,21.812 4.812,21.536 4.812,21.268 C 4.812,19.554 5.901,18.223 7.937,17.493 C 9.992,16.756 12.919,16.689 16.23,17.561 Z M 14.851,24.15 C 18.636,25.239 21.175,28.095 20.982,30.237 C 20.893,31.212 20.243,31.986 19.077,32.416 C 18.19,32.743 17.036,32.851 15.032,32.508 C 13.549,32.12 12.097,31.452 10.796,30.576 C 9.108,29.278 8.136,27.637 8.259,26.282 C 8.348,25.307 8.998,24.533 10.164,24.103 C 11.346,23.667 13.004,23.619 14.851,24.15 Z M 12.262,28.682 C 12.262,29.3 13.068,30.013 14.061,30.275 C 15.054,30.536 15.86,30.247 15.86,29.63 C 15.86,29.012 15.054,28.299 14.061,28.037 C 13.068,27.776 12.262,28.065 12.262,28.682 Z M 25.24,31.425 C 25.153,31.47 25.15,31.47 25.24,31.425 Z" stroke-width="0.5" fill="#515c65" fill-rule="evenodd" marker-start="none" marker-end="none" stroke-miterlimit="79.8403193612775"/>
    </g>
   </g>
  </g>
 </g>
</svg>
