<?xml version="1.0" standalone="no"?>
<!DOCTYPE svg PUBLIC "-//W3C//DTD SVG 1.1//EN" "http://www.w3.org/Graphics/SVG/1.1/DTD/svg11.dtd">
<!--Generator: Xara Xtreme (www.xara.com), SVG filter version: 1.0.0.13-->
<svg stroke-width="0.501" stroke-linejoin="bevel" fill-rule="evenodd" xmlns:xlink="http://www.w3.org/1999/xlink" xmlns="http://www.w3.org/2000/svg" version="1.1" overflow="visible" width="37.5pt" height="37.5pt" viewBox="0 0 37.5 37.5">
 <defs>
  <marker id="DefaultArrow2" markerUnits="strokeWidth" viewBox="0 0 1 1" markerWidth="1" markerHeight="1" overflow="visible" orient="auto">
   <!-- REF_ARROW_STRAIGHT (-2) -->
   <g transform="scale(0.0092592592)">
    <!-- 1/108 -->
    <path d="M -9 54 L -9 -54 L 117 0 z"/>
   </g>
  </marker>
  <marker id="DefaultArrow3" markerUnits="strokeWidth" viewBox="0 0 1 1" markerWidth="1" markerHeight="1" overflow="visible" orient="auto">
   <!-- REF_ARROW_ANGLED -->
   <g transform="scale(0.0092592592)">
    <path d="M -27 54 L -9 0 L -27 -54 L 135 0 z"/>
   </g>
  </marker>
  <marker id="DefaultArrow4" markerUnits="strokeWidth" viewBox="0 0 1 1" markerWidth="1" markerHeight="1" overflow="visible" orient="auto">
   <!-- REF_ARROW_ROUNDED -->
   <g transform="scale(0.0092592592)">
    <path d="M -9,0 L -9,-45 C -9,-51.708 2.808,-56.580 9,-54 L 117,-9 C 120.916,-7.369 126.000,-4.242 126,0 C 126,4.242 120.916,7.369 117,9 L 9,54 C 2.808,56.580 -9,51.708 -9,45 z"/>
   </g>
  </marker>
  <marker id="DefaultArrow5" markerUnits="strokeWidth" viewBox="0 0 1 1" markerWidth="1" markerHeight="1" overflow="visible" orient="auto">
   <!-- REF_ARROW_SPOT -->
   <g transform="scale(0.0092592592)">
    <path d="M -54, 0 C -54,29.807 -29.807,54 0,54 C 29.807,54 54,29.807 54,0 C 54,-29.807 29.807,-54 0,-54 C -29.807,-54 -54,-29.807 -54,0 z"/>
   </g>
  </marker>
  <marker id="DefaultArrow6" markerUnits="strokeWidth" viewBox="0 0 1 1" markerWidth="1" markerHeight="1" overflow="visible" orient="auto">
   <!-- REF_ARROW_DIAMOND -->
   <g transform="scale(0.0092592592)">
    <path d="M -63,0 L 0,63 L 63,0 L 0,-63 z"/>
   </g>
  </marker>
  <marker id="DefaultArrow7" markerUnits="strokeWidth" viewBox="0 0 1 1" markerWidth="1" markerHeight="1" overflow="visible" orient="auto">
   <!-- REF_ARROW_FEATHER -->
   <g transform="scale(0.0092592592)">
    <path d="M 18,-54 L 108,-54 L 63,0 L 108,54 L 18, 54 L -36,0 z"/>
   </g>
  </marker>
  <marker id="DefaultArrow8" markerUnits="strokeWidth" viewBox="0 0 1 1" markerWidth="1" markerHeight="1" overflow="visible" orient="auto">
   <!-- REF_ARROW_FEATHER2 -->
   <g transform="scale(0.0092592592)">
    <path d="M -36,0 L 18,-54 L 54,-54 L 18,-18 L 27,-18 L 63,-54 L 99,-54 L 63,-18 L 72,-18 L 108,-54 L 144,-54 L 90,0 L 144,54 L 108,54 L 72,18 L 63,18 L 99,54 L 63,54 L 27,18 L 18,18 L 54,54 L 18,54 z"/>
   </g>
  </marker>
  <marker id="DefaultArrow9" markerUnits="strokeWidth" viewBox="0 0 1 1" markerWidth="1" markerHeight="1" overflow="visible" orient="auto">
   <!-- REF_ARROW_HOLLOWDIAMOND -->
   <g transform="scale(0.0092592592)">
    <path d="M 0,45 L -45,0 L 0, -45 L 45, 0 z M 0, 63 L-63, 0 L 0, -63 L 63, 0 z"/>
   </g>
  </marker>
  <filter id="StainedFilter">
   <feBlend mode="multiply" in2="BackgroundImage" in="SourceGraphic" result="blend"/>
   <feComposite in="blend" in2="SourceAlpha" operator="in" result="comp"/>
  </filter>
  <filter id="BleachFilter">
   <feBlend mode="screen" in2="BackgroundImage" in="SourceGraphic" result="blend"/>
   <feComposite in="blend" in2="SourceAlpha" operator="in" result="comp"/>
  </filter>
  <filter id="InvertTransparencyBitmapFilter">
   <feComponentTransfer>
    <feFuncR type="gamma" amplitude="1.055" exponent=".416666666" offset="-0.055"/>
    <feFuncG type="gamma" amplitude="1.055" exponent=".416666666" offset="-0.055"/>
    <feFuncB type="gamma" amplitude="1.055" exponent=".416666666" offset="-0.055"/>
   </feComponentTransfer>
   <feComponentTransfer>
    <feFuncR type="linear" slope="-1" intercept="1"/>
    <feFuncG type="linear" slope="-1" intercept="1"/>
    <feFuncB type="linear" slope="-1" intercept="1"/>
    <feFuncA type="linear" slope="1" intercept="0"/>
   </feComponentTransfer>
   <feComponentTransfer>
    <feFuncR type="gamma" amplitude="1" exponent="2.4" offset="0"/>
    <feFuncG type="gamma" amplitude="1" exponent="2.4" offset="0"/>
    <feFuncB type="gamma" amplitude="1" exponent="2.4" offset="0"/>
   </feComponentTransfer>
  </filter>
 </defs>
 <g id="Document" fill="none" stroke="black" font-family="Times New Roman" font-size="16" transform="scale(1 -1)">
  <g id="Spread" transform="translate(0 -37.5)">
   <g id="icons">
    <g id="Group" stroke="none">
     <rect x="-18.748" y="-18.751" width="37.497" height="37.502" transform="translate(18.75 18.75) rotate(90)" stroke-linejoin="miter"/>
     <path d="M 16.645,5.125 C 15.099,5.305 13.45,6.698 12.82,8.224 C 12.5,9.001 12.437,9.836 12.829,10.499 C 12.935,10.678 13.065,10.828 13.214,10.952 C 13.229,10.97 13.245,10.987 13.262,11.004 L 24.756,22.209 L 24.814,22.259 C 25.259,22.612 25.832,22.721 26.419,22.652 C 27.113,22.571 27.774,22.302 28.349,21.888 L 30.982,24.374 C 32.387,25.78 32.986,26.667 33,28.505 C 33.012,30.08 31.736,31.549 30.03,31.5 C 28.408,31.413 27.526,30.148 27.742,28.603 C 27.839,27.899 28.59,27.199 29.568,27.035 L 29.903,27.008 L 30.096,27.076 C 30.706,27.35 30.813,27.845 30.701,28.28 C 30.552,28.851 30.032,29.324 29.324,29.253 C 28.912,29.212 28.544,29.513 28.503,29.925 C 28.462,30.337 28.763,30.705 29.175,30.746 C 30.71,30.899 31.845,29.837 32.153,28.658 C 32.48,27.399 31.892,25.985 30.195,25.526 C 30.132,25.508 30.066,25.5 30,25.5 C 28.246,25.5 26.492,26.689 26.257,28.396 C 25.93,30.725 27.367,32.859 29.969,32.999 C 32.637,33.076 34.517,30.819 34.499,28.494 C 34.481,26.101 33.591,24.862 32.027,23.299 L 29.408,20.825 C 29.624,20.525 29.808,20.196 29.954,19.844 C 30.3,19.003 30.348,18.078 29.829,17.398 L 29.771,17.332 L 18.497,5.695 C 18.425,5.62 18.341,5.564 18.243,5.523 C 17.858,5.186 17.261,5.053 16.645,5.125 Z M 17.379,6.764 C 17.441,6.869 17.514,7.165 17.292,7.702 C 16.838,8.803 15.604,9.777 14.681,9.885 C 14.276,9.932 14.161,9.804 14.12,9.735 C 14.058,9.63 13.985,9.334 14.207,8.797 C 14.661,7.696 15.895,6.722 16.818,6.614 C 17.223,6.567 17.338,6.695 17.379,6.764 Z M 18.744,8.104 L 28.642,18.321 L 28.686,18.411 C 28.732,18.555 28.75,18.829 28.567,19.273 C 28.119,20.359 27.181,21.053 26.244,21.163 C 26.092,21.18 25.981,21.171 25.901,21.152 L 25.757,21.089 L 15.608,11.195 C 16.907,10.739 18.151,9.553 18.679,8.275 C 18.702,8.218 18.724,8.161 18.744,8.104 Z M 7.335,17.267 C 6.902,17.215 6.443,17.33 6.02,17.582 C 4.704,18.362 3.759,20.336 3.742,22.017 C 3.733,22.869 3.962,23.678 4.54,24.166 C 4.738,24.333 4.957,24.445 5.184,24.505 C 5.188,24.506 5.19,24.507 5.192,24.508 L 20.022,30.65 L 20.095,30.676 C 20.64,30.838 21.212,30.727 21.731,30.445 C 22.263,30.156 22.72,29.746 23.08,29.253 L 24.414,29.92 C 24.784,30.105 25.235,29.955 25.42,29.585 C 25.605,29.215 25.455,28.764 25.085,28.579 L 23.752,27.912 C 23.89,27.473 23.965,27.006 23.971,26.527 C 23.982,25.617 23.682,24.739 22.948,24.301 L 22.878,24.264 L 7.814,17.318 C 7.658,17.246 7.49,17.232 7.335,17.267 Z M 7.242,18.798 C 7.337,18.878 7.514,19.162 7.508,19.785 C 7.495,21.064 6.729,22.491 5.964,22.944 C 5.793,23.046 5.68,23.063 5.624,23.063 C 5.577,23.062 5.544,23.05 5.507,23.019 C 5.412,22.939 5.235,22.655 5.241,22.032 C 5.254,20.753 6.02,19.326 6.785,18.873 C 6.956,18.771 7.069,18.754 7.125,18.754 C 7.172,18.755 7.205,18.767 7.242,18.798 Z M 9.001,19.518 L 22.189,25.599 L 22.262,25.665 C 22.359,25.781 22.477,26.03 22.472,26.51 C 22.458,27.685 21.845,28.677 21.016,29.126 C 20.814,29.235 20.674,29.255 20.589,29.25 L 20.539,29.241 L 7.332,23.772 C 8.324,22.827 8.992,21.21 9.007,19.8 C 9.007,19.705 9.006,19.611 9.001,19.518 Z" stroke-width="0.5" fill="#515c65" fill-rule="evenodd" marker-start="none" marker-end="none" stroke-miterlimit="79.8403193612775"/>
    </g>
   </g>
  </g>
 </g>
</svg>
