<?xml version="1.0" standalone="no"?>
<!DOCTYPE svg PUBLIC "-//W3C//DTD SVG 1.1//EN" "http://www.w3.org/Graphics/SVG/1.1/DTD/svg11.dtd">
<!--Generator: Xara Xtreme (www.xara.com), SVG filter version: 1.0.0.13-->
<svg stroke-width="0.501" stroke-linejoin="bevel" fill-rule="evenodd" xmlns:xlink="http://www.w3.org/1999/xlink" xmlns="http://www.w3.org/2000/svg" version="1.1" overflow="visible" width="37.5pt" height="37.5pt" viewBox="0 0 37.5 37.5">
 <defs>
  <marker id="DefaultArrow2" markerUnits="strokeWidth" viewBox="0 0 1 1" markerWidth="1" markerHeight="1" overflow="visible" orient="auto">
   <!-- REF_ARROW_STRAIGHT (-2) -->
   <g transform="scale(0.0092592592)">
    <!-- 1/108 -->
    <path d="M -9 54 L -9 -54 L 117 0 z"/>
   </g>
  </marker>
  <marker id="DefaultArrow3" markerUnits="strokeWidth" viewBox="0 0 1 1" markerWidth="1" markerHeight="1" overflow="visible" orient="auto">
   <!-- REF_ARROW_ANGLED -->
   <g transform="scale(0.0092592592)">
    <path d="M -27 54 L -9 0 L -27 -54 L 135 0 z"/>
   </g>
  </marker>
  <marker id="DefaultArrow4" markerUnits="strokeWidth" viewBox="0 0 1 1" markerWidth="1" markerHeight="1" overflow="visible" orient="auto">
   <!-- REF_ARROW_ROUNDED -->
   <g transform="scale(0.0092592592)">
    <path d="M -9,0 L -9,-45 C -9,-51.708 2.808,-56.580 9,-54 L 117,-9 C 120.916,-7.369 126.000,-4.242 126,0 C 126,4.242 120.916,7.369 117,9 L 9,54 C 2.808,56.580 -9,51.708 -9,45 z"/>
   </g>
  </marker>
  <marker id="DefaultArrow5" markerUnits="strokeWidth" viewBox="0 0 1 1" markerWidth="1" markerHeight="1" overflow="visible" orient="auto">
   <!-- REF_ARROW_SPOT -->
   <g transform="scale(0.0092592592)">
    <path d="M -54, 0 C -54,29.807 -29.807,54 0,54 C 29.807,54 54,29.807 54,0 C 54,-29.807 29.807,-54 0,-54 C -29.807,-54 -54,-29.807 -54,0 z"/>
   </g>
  </marker>
  <marker id="DefaultArrow6" markerUnits="strokeWidth" viewBox="0 0 1 1" markerWidth="1" markerHeight="1" overflow="visible" orient="auto">
   <!-- REF_ARROW_DIAMOND -->
   <g transform="scale(0.0092592592)">
    <path d="M -63,0 L 0,63 L 63,0 L 0,-63 z"/>
   </g>
  </marker>
  <marker id="DefaultArrow7" markerUnits="strokeWidth" viewBox="0 0 1 1" markerWidth="1" markerHeight="1" overflow="visible" orient="auto">
   <!-- REF_ARROW_FEATHER -->
   <g transform="scale(0.0092592592)">
    <path d="M 18,-54 L 108,-54 L 63,0 L 108,54 L 18, 54 L -36,0 z"/>
   </g>
  </marker>
  <marker id="DefaultArrow8" markerUnits="strokeWidth" viewBox="0 0 1 1" markerWidth="1" markerHeight="1" overflow="visible" orient="auto">
   <!-- REF_ARROW_FEATHER2 -->
   <g transform="scale(0.0092592592)">
    <path d="M -36,0 L 18,-54 L 54,-54 L 18,-18 L 27,-18 L 63,-54 L 99,-54 L 63,-18 L 72,-18 L 108,-54 L 144,-54 L 90,0 L 144,54 L 108,54 L 72,18 L 63,18 L 99,54 L 63,54 L 27,18 L 18,18 L 54,54 L 18,54 z"/>
   </g>
  </marker>
  <marker id="DefaultArrow9" markerUnits="strokeWidth" viewBox="0 0 1 1" markerWidth="1" markerHeight="1" overflow="visible" orient="auto">
   <!-- REF_ARROW_HOLLOWDIAMOND -->
   <g transform="scale(0.0092592592)">
    <path d="M 0,45 L -45,0 L 0, -45 L 45, 0 z M 0, 63 L-63, 0 L 0, -63 L 63, 0 z"/>
   </g>
  </marker>
  <filter id="StainedFilter">
   <feBlend mode="multiply" in2="BackgroundImage" in="SourceGraphic" result="blend"/>
   <feComposite in="blend" in2="SourceAlpha" operator="in" result="comp"/>
  </filter>
  <filter id="BleachFilter">
   <feBlend mode="screen" in2="BackgroundImage" in="SourceGraphic" result="blend"/>
   <feComposite in="blend" in2="SourceAlpha" operator="in" result="comp"/>
  </filter>
  <filter id="InvertTransparencyBitmapFilter">
   <feComponentTransfer>
    <feFuncR type="gamma" amplitude="1.055" exponent=".416666666" offset="-0.055"/>
    <feFuncG type="gamma" amplitude="1.055" exponent=".416666666" offset="-0.055"/>
    <feFuncB type="gamma" amplitude="1.055" exponent=".416666666" offset="-0.055"/>
   </feComponentTransfer>
   <feComponentTransfer>
    <feFuncR type="linear" slope="-1" intercept="1"/>
    <feFuncG type="linear" slope="-1" intercept="1"/>
    <feFuncB type="linear" slope="-1" intercept="1"/>
    <feFuncA type="linear" slope="1" intercept="0"/>
   </feComponentTransfer>
   <feComponentTransfer>
    <feFuncR type="gamma" amplitude="1" exponent="2.4" offset="0"/>
    <feFuncG type="gamma" amplitude="1" exponent="2.4" offset="0"/>
    <feFuncB type="gamma" amplitude="1" exponent="2.4" offset="0"/>
   </feComponentTransfer>
  </filter>
 </defs>
 <g id="Document" fill="none" stroke="black" font-family="Times New Roman" font-size="16" transform="scale(1 -1)">
  <g id="Spread" transform="translate(0 -37.5)">
   <g id="icons">
    <g id="Group" stroke="none">
     <rect x="-18.748" y="-18.751" width="37.497" height="37.502" transform="translate(18.75 18.75) rotate(90)" stroke-linejoin="miter"/>
     <path d="M 18,6.747 L 17.999,12.015 C 11.073,12.142 4.779,14.01 2.452,16.955 L 1.482,12.587 C 1.392,12.183 0.991,11.928 0.587,12.017 C 0.183,12.107 -0.072,12.508 0.017,12.912 L 1.502,19.596 C 1.617,24.037 9.736,26.991 18.752,26.991 C 27.76,26.991 35.917,24.037 36.002,19.57 L 37.482,12.912 C 37.571,12.508 37.316,12.107 36.912,12.017 C 36.508,11.928 36.107,12.183 36.017,12.587 L 35.047,16.951 C 32.719,14.013 26.436,12.141 19.5,12.015 L 19.5,6.747 C 19.5,6.333 19.163,5.997 18.75,5.997 C 18.336,5.997 18,6.333 18,6.747 Z M 24.322,13.911 L 23.404,15.289 C 21.962,15.104 20.391,15.004 18.752,15.004 C 17.111,15.004 15.538,15.105 14.095,15.29 L 13.176,13.912 C 14.908,13.652 16.786,13.509 18.752,13.509 C 20.716,13.509 22.592,13.651 24.322,13.911 Z M 11.561,14.196 L 12.461,15.546 C 11.583,15.71 10.772,15.908 10.046,16.135 C 8.272,16.689 6.622,17.534 6.143,18.763 C 6.097,18.754 6.049,18.75 6,18.75 L 3.141,18.75 C 3.566,17.607 4.955,16.413 7.369,15.428 C 8.58,14.933 9.995,14.514 11.561,14.196 Z M 30.134,15.428 C 32.557,16.418 33.938,17.613 34.361,18.75 L 31.354,18.75 C 30.868,17.526 29.22,16.685 27.457,16.135 C 26.729,15.907 25.917,15.709 25.038,15.545 L 25.937,14.195 C 27.505,14.514 28.921,14.932 30.134,15.428 Z M 27.01,17.567 C 28.055,17.894 28.846,18.267 29.36,18.646 C 29.889,19.036 29.999,19.333 29.999,19.5 C 29.999,19.666 29.889,19.963 29.36,20.353 C 28.846,20.732 28.055,21.105 27.01,21.432 C 24.929,22.082 22.008,22.496 18.752,22.496 C 15.495,22.496 12.574,22.082 10.493,21.432 C 9.448,21.105 8.657,20.732 8.143,20.353 C 7.614,19.963 7.505,19.666 7.505,19.5 C 7.505,19.333 7.614,19.036 8.143,18.646 C 8.657,18.267 9.448,17.894 10.493,17.567 C 12.574,16.917 15.495,16.504 18.752,16.504 C 22.008,16.504 24.929,16.917 27.01,17.567 Z M 10.046,22.864 C 10.772,23.09 11.583,23.288 12.461,23.452 L 11.561,24.802 C 9.995,24.484 8.58,24.065 7.369,23.571 C 4.947,22.581 3.566,21.386 3.142,20.25 L 6,20.25 C 6.049,20.25 6.097,20.245 6.143,20.236 C 6.623,21.466 8.276,22.311 10.046,22.864 Z M 30.134,23.571 C 28.921,24.066 27.505,24.484 25.937,24.803 L 25.037,23.453 C 25.916,23.289 26.729,23.091 27.457,22.864 C 29.223,22.311 30.868,21.47 31.354,20.25 L 34.362,20.25 C 33.937,21.391 32.547,22.585 30.134,23.571 Z M 18.752,23.996 C 20.391,23.996 21.962,23.894 23.404,23.709 L 24.323,25.088 C 22.592,25.347 20.716,25.491 18.752,25.491 C 16.785,25.491 14.907,25.347 13.176,25.087 L 14.095,23.709 C 15.538,23.894 17.11,23.996 18.752,23.996 Z" stroke-width="0.5" fill="#515c65" fill-rule="evenodd" marker-start="none" marker-end="none" stroke-miterlimit="79.8403193612775"/>
    </g>
   </g>
  </g>
 </g>
</svg>
