<?xml version="1.0" standalone="no"?>
<!DOCTYPE svg PUBLIC "-//W3C//DTD SVG 1.1//EN" "http://www.w3.org/Graphics/SVG/1.1/DTD/svg11.dtd">
<!--Generator: Xara Xtreme (www.xara.com), SVG filter version: 1.0.0.13-->
<svg stroke-width="0.501" stroke-linejoin="bevel" fill-rule="evenodd" xmlns:xlink="http://www.w3.org/1999/xlink" xmlns="http://www.w3.org/2000/svg" version="1.1" overflow="visible" width="37.5pt" height="37.5pt" viewBox="0 0 37.5 37.5">
 <defs>
  <marker id="DefaultArrow2" markerUnits="strokeWidth" viewBox="0 0 1 1" markerWidth="1" markerHeight="1" overflow="visible" orient="auto">
   <!-- REF_ARROW_STRAIGHT (-2) -->
   <g transform="scale(0.0092592592)">
    <!-- 1/108 -->
    <path d="M -9 54 L -9 -54 L 117 0 z"/>
   </g>
  </marker>
  <marker id="DefaultArrow3" markerUnits="strokeWidth" viewBox="0 0 1 1" markerWidth="1" markerHeight="1" overflow="visible" orient="auto">
   <!-- REF_ARROW_ANGLED -->
   <g transform="scale(0.0092592592)">
    <path d="M -27 54 L -9 0 L -27 -54 L 135 0 z"/>
   </g>
  </marker>
  <marker id="DefaultArrow4" markerUnits="strokeWidth" viewBox="0 0 1 1" markerWidth="1" markerHeight="1" overflow="visible" orient="auto">
   <!-- REF_ARROW_ROUNDED -->
   <g transform="scale(0.0092592592)">
    <path d="M -9,0 L -9,-45 C -9,-51.708 2.808,-56.580 9,-54 L 117,-9 C 120.916,-7.369 126.000,-4.242 126,0 C 126,4.242 120.916,7.369 117,9 L 9,54 C 2.808,56.580 -9,51.708 -9,45 z"/>
   </g>
  </marker>
  <marker id="DefaultArrow5" markerUnits="strokeWidth" viewBox="0 0 1 1" markerWidth="1" markerHeight="1" overflow="visible" orient="auto">
   <!-- REF_ARROW_SPOT -->
   <g transform="scale(0.0092592592)">
    <path d="M -54, 0 C -54,29.807 -29.807,54 0,54 C 29.807,54 54,29.807 54,0 C 54,-29.807 29.807,-54 0,-54 C -29.807,-54 -54,-29.807 -54,0 z"/>
   </g>
  </marker>
  <marker id="DefaultArrow6" markerUnits="strokeWidth" viewBox="0 0 1 1" markerWidth="1" markerHeight="1" overflow="visible" orient="auto">
   <!-- REF_ARROW_DIAMOND -->
   <g transform="scale(0.0092592592)">
    <path d="M -63,0 L 0,63 L 63,0 L 0,-63 z"/>
   </g>
  </marker>
  <marker id="DefaultArrow7" markerUnits="strokeWidth" viewBox="0 0 1 1" markerWidth="1" markerHeight="1" overflow="visible" orient="auto">
   <!-- REF_ARROW_FEATHER -->
   <g transform="scale(0.0092592592)">
    <path d="M 18,-54 L 108,-54 L 63,0 L 108,54 L 18, 54 L -36,0 z"/>
   </g>
  </marker>
  <marker id="DefaultArrow8" markerUnits="strokeWidth" viewBox="0 0 1 1" markerWidth="1" markerHeight="1" overflow="visible" orient="auto">
   <!-- REF_ARROW_FEATHER2 -->
   <g transform="scale(0.0092592592)">
    <path d="M -36,0 L 18,-54 L 54,-54 L 18,-18 L 27,-18 L 63,-54 L 99,-54 L 63,-18 L 72,-18 L 108,-54 L 144,-54 L 90,0 L 144,54 L 108,54 L 72,18 L 63,18 L 99,54 L 63,54 L 27,18 L 18,18 L 54,54 L 18,54 z"/>
   </g>
  </marker>
  <marker id="DefaultArrow9" markerUnits="strokeWidth" viewBox="0 0 1 1" markerWidth="1" markerHeight="1" overflow="visible" orient="auto">
   <!-- REF_ARROW_HOLLOWDIAMOND -->
   <g transform="scale(0.0092592592)">
    <path d="M 0,45 L -45,0 L 0, -45 L 45, 0 z M 0, 63 L-63, 0 L 0, -63 L 63, 0 z"/>
   </g>
  </marker>
  <filter id="StainedFilter">
   <feBlend mode="multiply" in2="BackgroundImage" in="SourceGraphic" result="blend"/>
   <feComposite in="blend" in2="SourceAlpha" operator="in" result="comp"/>
  </filter>
  <filter id="BleachFilter">
   <feBlend mode="screen" in2="BackgroundImage" in="SourceGraphic" result="blend"/>
   <feComposite in="blend" in2="SourceAlpha" operator="in" result="comp"/>
  </filter>
  <filter id="InvertTransparencyBitmapFilter">
   <feComponentTransfer>
    <feFuncR type="gamma" amplitude="1.055" exponent=".416666666" offset="-0.055"/>
    <feFuncG type="gamma" amplitude="1.055" exponent=".416666666" offset="-0.055"/>
    <feFuncB type="gamma" amplitude="1.055" exponent=".416666666" offset="-0.055"/>
   </feComponentTransfer>
   <feComponentTransfer>
    <feFuncR type="linear" slope="-1" intercept="1"/>
    <feFuncG type="linear" slope="-1" intercept="1"/>
    <feFuncB type="linear" slope="-1" intercept="1"/>
    <feFuncA type="linear" slope="1" intercept="0"/>
   </feComponentTransfer>
   <feComponentTransfer>
    <feFuncR type="gamma" amplitude="1" exponent="2.4" offset="0"/>
    <feFuncG type="gamma" amplitude="1" exponent="2.4" offset="0"/>
    <feFuncB type="gamma" amplitude="1" exponent="2.4" offset="0"/>
   </feComponentTransfer>
  </filter>
 </defs>
 <g id="Document" fill="none" stroke="black" font-family="Times New Roman" font-size="16" transform="scale(1 -1)">
  <g id="Spread" transform="translate(0 -37.5)">
   <g id="icons">
    <g id="Group" stroke="none">
     <rect x="-18.748" y="-18.751" width="37.497" height="37.502" transform="translate(18.75 18.75) rotate(90)" stroke-linejoin="miter"/>
     <path d="M 6.635,6.327 L 6.573,6.382 L 6.248,6.708 L 6.196,6.767 C 5.094,8.132 5.021,9.834 6.191,11.292 L 6.243,11.35 L 6.907,12.021 C 7.389,12.482 8.198,13.19 9.087,13.957 C 5.573,18.955 5.037,25.181 8.646,28.789 C 8.861,29.006 9.074,29.217 9.288,29.432 C 12.87,33.014 19.008,32.526 24.021,29.056 C 24.335,29.41 24.615,29.718 24.842,29.956 L 26.262,31.37 L 26.322,31.423 C 27.781,32.594 29.481,32.52 30.847,31.418 L 30.904,31.366 L 31.231,31.041 L 31.287,30.979 C 32.39,29.605 32.434,27.905 31.286,26.456 L 31.228,26.39 L 29.811,24.977 C 29.564,24.741 29.239,24.45 28.87,24.128 C 32.18,19.162 32.591,13.17 29.071,9.648 C 28.855,9.432 28.645,9.223 28.429,9.008 C 24.88,5.459 18.793,5.917 13.841,9.277 C 13.069,8.371 12.354,7.543 11.888,7.054 L 11.224,6.387 L 11.158,6.328 C 9.708,5.18 8.009,5.223 6.635,6.327 Z M 9.89,7.271 L 10.203,7.486 L 10.813,8.101 C 11.468,8.788 12.705,10.257 13.907,11.674 C 14.891,12.836 15.944,14.073 16.51,14.64 L 16.681,14.802 L 17.494,15.619 L 17.609,15.849 C 17.689,16.112 17.611,16.384 17.35,16.644 L 16.544,17.448 L 16.219,17.647 C 15.995,17.748 15.79,17.769 15.617,17.732 L 15.422,17.651 L 14.624,16.854 L 14.462,16.682 C 13.905,16.12 12.708,15.089 11.515,14.065 C 10.106,12.855 8.645,11.61 7.96,10.952 L 7.347,10.334 L 7.128,10.018 C 6.733,9.347 6.754,8.666 7.14,8.025 L 7.346,7.731 L 7.585,7.487 C 8.302,6.91 9.102,6.812 9.89,7.271 Z M 25.277,8.67 C 25.351,8.763 25.447,8.84 25.564,8.892 C 29.447,10.603 28.794,18.576 23.502,23.87 C 18.179,29.192 12.43,30.192 8.932,26.692 C 8.891,26.651 8.848,26.617 8.802,26.587 C 6.94,23.605 7.4,19.03 10.23,14.938 C 10.333,15.027 10.435,15.115 10.538,15.203 C 12.009,16.467 13.213,17.512 13.528,17.875 L 13.53,17.878 C 13.235,18.945 13.327,20.129 14.139,20.939 C 15.527,22.328 18.015,21.727 19.717,20.026 C 21.403,18.34 22.031,15.848 20.629,14.449 C 19.876,13.693 18.791,13.561 17.785,13.785 L 17.744,13.744 L 17.704,13.707 C 17.35,13.4 16.271,12.144 15.051,10.705 C 14.973,10.613 14.895,10.521 14.817,10.428 C 18.432,8.019 22.389,7.446 25.277,8.67 Z M 19.421,9.19 L 18.688,12.119 C 18.587,12.521 18.832,12.929 19.233,13.029 C 19.635,13.13 20.043,12.885 20.143,12.484 L 20.876,9.555 C 20.977,9.153 20.732,8.745 20.331,8.645 C 19.929,8.544 19.521,8.789 19.421,9.19 Z M 25.508,25.869 C 21.966,29.408 17.57,30.864 14.107,30.253 C 17.531,30.165 21.274,28.217 24.563,24.931 C 27.849,21.642 29.722,16.861 29.508,13.057 C 30.874,16.669 29.549,21.826 25.508,25.869 Z M 26.258,14.965 L 22.997,15.671 C 22.592,15.759 22.335,16.159 22.422,16.563 C 22.51,16.968 22.91,17.225 23.314,17.138 L 26.575,16.432 C 26.98,16.344 27.237,15.944 27.15,15.54 C 27.062,15.135 26.662,14.878 26.258,14.965 Z M 19.568,15.51 C 20.146,16.086 20.022,17.599 18.656,18.965 C 17.31,20.31 15.787,20.466 15.2,19.878 C 15.021,19.699 14.897,19.425 14.877,19.064 C 15.802,19.477 16.789,19.157 17.485,18.62 L 17.558,18.557 L 18.409,17.707 C 19.096,17.022 19.331,16.083 18.975,15.214 C 19.23,15.263 19.428,15.37 19.568,15.51 Z M 12.07,19.121 L 9.141,19.743 C 8.736,19.829 8.477,20.227 8.563,20.632 C 8.649,21.037 9.047,21.296 9.452,21.21 L 12.381,20.588 C 12.786,20.502 13.045,20.104 12.959,19.699 C 12.873,19.294 12.475,19.035 12.07,19.121 Z M 20.293,20.708 C 19.982,20.981 19.951,21.455 20.224,21.766 L 21.514,23.236 C 21.787,23.547 22.261,23.578 22.572,23.305 C 22.883,23.032 22.914,22.558 22.641,22.247 L 21.351,20.777 C 21.078,20.466 20.604,20.435 20.293,20.708 Z M 14.745,23.003 L 13.805,26.805 C 13.706,27.207 13.952,27.614 14.353,27.714 C 14.755,27.813 15.162,27.567 15.262,27.166 L 16.202,23.364 C 16.301,22.962 16.055,22.555 15.654,22.455 C 15.252,22.356 14.845,22.602 14.745,23.003 Z M 28.762,26.05 L 30.128,27.412 L 30.341,27.723 C 30.734,28.398 30.719,29.082 30.338,29.723 L 30.132,30.019 L 29.887,30.262 L 29.587,30.473 C 28.947,30.859 28.267,30.881 27.595,30.486 L 27.283,30.269 L 25.913,28.905 C 25.729,28.713 25.493,28.455 25.222,28.15 C 25.686,27.77 26.135,27.363 26.569,26.93 C 27.076,26.422 27.547,25.892 27.982,25.344 C 28.3,25.623 28.567,25.863 28.762,26.05 Z" stroke-width="0.5" fill="#515c65" fill-rule="evenodd" marker-start="none" marker-end="none" stroke-miterlimit="79.8403193612775"/>
    </g>
   </g>
  </g>
 </g>
</svg>
