<?xml version="1.0" standalone="no"?>
<!DOCTYPE svg PUBLIC "-//W3C//DTD SVG 1.1//EN" "http://www.w3.org/Graphics/SVG/1.1/DTD/svg11.dtd">
<!--Generator: Xara Xtreme (www.xara.com), SVG filter version: 1.0.0.13-->
<svg stroke-width="0.501" stroke-linejoin="bevel" fill-rule="evenodd" xmlns:xlink="http://www.w3.org/1999/xlink" xmlns="http://www.w3.org/2000/svg" version="1.1" overflow="visible" width="37.5pt" height="37.5pt" viewBox="0 0 37.5 37.5">
 <defs>
  <marker id="DefaultArrow2" markerUnits="strokeWidth" viewBox="0 0 1 1" markerWidth="1" markerHeight="1" overflow="visible" orient="auto">
   <!-- REF_ARROW_STRAIGHT (-2) -->
   <g transform="scale(0.0092592592)">
    <!-- 1/108 -->
    <path d="M -9 54 L -9 -54 L 117 0 z"/>
   </g>
  </marker>
  <marker id="DefaultArrow3" markerUnits="strokeWidth" viewBox="0 0 1 1" markerWidth="1" markerHeight="1" overflow="visible" orient="auto">
   <!-- REF_ARROW_ANGLED -->
   <g transform="scale(0.0092592592)">
    <path d="M -27 54 L -9 0 L -27 -54 L 135 0 z"/>
   </g>
  </marker>
  <marker id="DefaultArrow4" markerUnits="strokeWidth" viewBox="0 0 1 1" markerWidth="1" markerHeight="1" overflow="visible" orient="auto">
   <!-- REF_ARROW_ROUNDED -->
   <g transform="scale(0.0092592592)">
    <path d="M -9,0 L -9,-45 C -9,-51.708 2.808,-56.580 9,-54 L 117,-9 C 120.916,-7.369 126.000,-4.242 126,0 C 126,4.242 120.916,7.369 117,9 L 9,54 C 2.808,56.580 -9,51.708 -9,45 z"/>
   </g>
  </marker>
  <marker id="DefaultArrow5" markerUnits="strokeWidth" viewBox="0 0 1 1" markerWidth="1" markerHeight="1" overflow="visible" orient="auto">
   <!-- REF_ARROW_SPOT -->
   <g transform="scale(0.0092592592)">
    <path d="M -54, 0 C -54,29.807 -29.807,54 0,54 C 29.807,54 54,29.807 54,0 C 54,-29.807 29.807,-54 0,-54 C -29.807,-54 -54,-29.807 -54,0 z"/>
   </g>
  </marker>
  <marker id="DefaultArrow6" markerUnits="strokeWidth" viewBox="0 0 1 1" markerWidth="1" markerHeight="1" overflow="visible" orient="auto">
   <!-- REF_ARROW_DIAMOND -->
   <g transform="scale(0.0092592592)">
    <path d="M -63,0 L 0,63 L 63,0 L 0,-63 z"/>
   </g>
  </marker>
  <marker id="DefaultArrow7" markerUnits="strokeWidth" viewBox="0 0 1 1" markerWidth="1" markerHeight="1" overflow="visible" orient="auto">
   <!-- REF_ARROW_FEATHER -->
   <g transform="scale(0.0092592592)">
    <path d="M 18,-54 L 108,-54 L 63,0 L 108,54 L 18, 54 L -36,0 z"/>
   </g>
  </marker>
  <marker id="DefaultArrow8" markerUnits="strokeWidth" viewBox="0 0 1 1" markerWidth="1" markerHeight="1" overflow="visible" orient="auto">
   <!-- REF_ARROW_FEATHER2 -->
   <g transform="scale(0.0092592592)">
    <path d="M -36,0 L 18,-54 L 54,-54 L 18,-18 L 27,-18 L 63,-54 L 99,-54 L 63,-18 L 72,-18 L 108,-54 L 144,-54 L 90,0 L 144,54 L 108,54 L 72,18 L 63,18 L 99,54 L 63,54 L 27,18 L 18,18 L 54,54 L 18,54 z"/>
   </g>
  </marker>
  <marker id="DefaultArrow9" markerUnits="strokeWidth" viewBox="0 0 1 1" markerWidth="1" markerHeight="1" overflow="visible" orient="auto">
   <!-- REF_ARROW_HOLLOWDIAMOND -->
   <g transform="scale(0.0092592592)">
    <path d="M 0,45 L -45,0 L 0, -45 L 45, 0 z M 0, 63 L-63, 0 L 0, -63 L 63, 0 z"/>
   </g>
  </marker>
  <filter id="StainedFilter">
   <feBlend mode="multiply" in2="BackgroundImage" in="SourceGraphic" result="blend"/>
   <feComposite in="blend" in2="SourceAlpha" operator="in" result="comp"/>
  </filter>
  <filter id="BleachFilter">
   <feBlend mode="screen" in2="BackgroundImage" in="SourceGraphic" result="blend"/>
   <feComposite in="blend" in2="SourceAlpha" operator="in" result="comp"/>
  </filter>
  <filter id="InvertTransparencyBitmapFilter">
   <feComponentTransfer>
    <feFuncR type="gamma" amplitude="1.055" exponent=".416666666" offset="-0.055"/>
    <feFuncG type="gamma" amplitude="1.055" exponent=".416666666" offset="-0.055"/>
    <feFuncB type="gamma" amplitude="1.055" exponent=".416666666" offset="-0.055"/>
   </feComponentTransfer>
   <feComponentTransfer>
    <feFuncR type="linear" slope="-1" intercept="1"/>
    <feFuncG type="linear" slope="-1" intercept="1"/>
    <feFuncB type="linear" slope="-1" intercept="1"/>
    <feFuncA type="linear" slope="1" intercept="0"/>
   </feComponentTransfer>
   <feComponentTransfer>
    <feFuncR type="gamma" amplitude="1" exponent="2.4" offset="0"/>
    <feFuncG type="gamma" amplitude="1" exponent="2.4" offset="0"/>
    <feFuncB type="gamma" amplitude="1" exponent="2.4" offset="0"/>
   </feComponentTransfer>
  </filter>
 </defs>
 <g id="Document" fill="none" stroke="black" font-family="Times New Roman" font-size="16" transform="scale(1 -1)">
  <g id="Spread" transform="translate(0 -37.5)">
   <g id="icons">
    <g id="Group" stroke="none">
     <rect x="-18.748" y="-18.751" width="37.497" height="37.502" transform="translate(18.75 18.75) rotate(90)" stroke-linejoin="miter"/>
     <path d="M 0.098,13.129 L 0.08,13.168 L 0.054,13.223 L 0.036,13.267 L 0.026,13.311 L 0.013,13.363 L 0.004,13.411 L 0.003,13.462 L 0,13.5 L 0,14.25 C 0,14.364 0.025,14.472 0.002,14.261 C 0.007,14.394 0.032,14.492 0.068,14.556 C 0.092,14.61 0.12,14.658 0.106,14.627 C 0.116,14.644 0.1,14.617 0.074,14.573 L 0.079,14.585 L 0.831,16.083 L 1.093,16.556 C 1.874,17.684 3.426,18.315 4.722,18.708 C 6.254,19.172 7.932,19.436 8.651,19.64 C 11.049,20.318 11.724,20.69 14.116,22.099 L 14.593,22.38 L 21.272,26.833 L 23.469,29.03 C 23.723,29.283 24.12,29.322 24.418,29.122 C 25.198,28.598 25.469,27.731 25.448,26.811 C 25.43,26.047 25.219,25.17 24.883,24.223 C 26.63,23.126 28.82,22.496 30.748,22.499 C 32.03,22.501 33.095,22.577 34.135,23.155 C 34.428,23.318 34.793,23.267 35.03,23.03 C 37.188,20.87 37.461,18.082 37.495,15.085 C 37.498,15.055 37.5,15.027 37.5,15 L 37.5,11.25 C 37.5,11.123 37.467,10.998 37.406,10.887 C 36.661,9.539 35.071,9 33,9 L 24.898,9 C 24.654,9 24.426,9.118 24.285,9.316 C 23.575,10.32 22.817,10.564 22.215,10.502 C 21.576,10.437 20.958,10.01 20.6,9.379 C 20.466,9.145 20.217,9 19.948,9 L 10.5,9 C 5.766,9 1.677,10.352 0.098,13.129 Z M 19.542,10.5 L 19.798,10.814 C 20.378,11.453 21.172,11.903 22.062,11.994 C 23.133,12.104 24.228,11.68 25.134,10.658 L 25.266,10.5 L 33,10.5 C 34.637,10.5 35.51,10.869 35.936,11.383 L 36,11.475 L 36,13.5 C 36,13.671 35.999,13.839 35.999,14.005 L 35.724,13.928 C 32.792,13.155 29.651,12.75 26.25,12.75 C 26.155,12.75 26.062,12.767 25.974,12.802 C 23.317,13.852 20.416,13.867 18.493,12.185 C 18.357,12.065 18.181,12 18,12 L 11.343,12 C 11.313,11.995 11.281,11.994 11.25,11.994 C 11.218,11.994 11.186,11.995 11.155,12 L 10.5,12 C 6.836,12 4.541,12.633 2.557,13.111 L 1.821,13.28 L 1.935,13.14 C 3.414,11.52 6.472,10.5 10.5,10.5 L 19.542,10.5 Z M 10.5,13.5 L 10.5,14.175 C 10.5,15.096 10.247,15.824 9.843,16.447 C 9.466,17.027 8.946,17.534 8.33,18.02 C 7.46,17.831 6.303,17.619 5.157,17.272 C 3.589,16.797 2.502,16.193 2.19,15.457 L 2.17,15.414 L 1.866,14.807 C 4.146,14.329 6.403,13.5 10.5,13.5 Z M 17.739,13.5 L 17.99,13.7 C 20.305,15.376 23.337,15.303 25.967,14.402 L 26.375,14.252 L 27.639,14.273 C 30.63,14.376 33.397,14.815 35.983,15.555 C 35.973,15.955 35.958,16.34 35.934,16.711 C 35.91,16.711 35.885,16.712 35.861,16.715 C 35.25,16.778 34.564,16.829 33.91,16.928 C 33.244,17.029 32.557,17.186 31.895,17.478 C 30.555,18.07 29.432,19.169 28.678,21.191 C 26.19,21.64 23.591,22.871 21.925,24.756 L 21.553,25.216 L 20.027,24.198 L 20.585,23.92 C 20.955,23.735 21.105,23.284 20.92,22.914 C 20.735,22.544 20.284,22.394 19.914,22.579 L 18.59,23.24 L 17.132,22.269 L 17.585,22.043 C 17.955,21.858 18.105,21.407 17.92,21.037 C 17.735,20.667 17.284,20.517 16.914,20.702 L 15.695,21.311 L 15.416,21.125 L 15.38,21.103 C 14.923,20.833 14.52,20.596 14.156,20.383 L 14.585,20.17 C 14.955,19.985 15.105,19.534 14.92,19.164 C 14.735,18.794 14.284,18.644 13.914,18.829 L 12.567,19.502 C 11.784,19.103 11.067,18.811 10.069,18.496 C 10.451,18.128 10.804,17.721 11.101,17.264 C 11.656,16.409 12,15.399 12,14.175 L 12,13.5 L 17.739,13.5 Z M 0.106,14.627 C 0.133,14.674 0.133,14.677 0.106,14.627 Z M 34.628,21.192 L 34.326,21.579 L 33.816,21.384 C 32.77,21.037 31.736,21.001 30.751,21 C 30.63,20.999 30.509,21.001 30.386,21.005 C 30.977,19.801 31.716,19.197 32.502,18.85 C 32.996,18.631 33.539,18.502 34.134,18.412 C 34.664,18.331 35.195,18.287 35.767,18.232 C 35.58,19.358 35.241,20.33 34.628,21.192 Z M 23.949,26.845 C 23.952,27 23.943,27.134 23.926,27.25 L 23.906,27.345 L 22.717,26.156 C 22.979,25.808 23.283,25.48 23.62,25.174 C 23.829,25.841 23.938,26.399 23.949,26.845 Z" stroke-width="0.5" fill="#515c65" fill-rule="evenodd" marker-start="none" marker-end="none" stroke-miterlimit="79.8403193612775"/>
    </g>
   </g>
  </g>
 </g>
</svg>
