<?xml version="1.0" standalone="no"?>
<!DOCTYPE svg PUBLIC "-//W3C//DTD SVG 1.1//EN" "http://www.w3.org/Graphics/SVG/1.1/DTD/svg11.dtd">
<!--Generator: Xara Xtreme (www.xara.com), SVG filter version: 1.0.0.13-->
<svg stroke-width="0.501" stroke-linejoin="bevel" fill-rule="evenodd" xmlns:xlink="http://www.w3.org/1999/xlink" xmlns="http://www.w3.org/2000/svg" version="1.1" overflow="visible" width="37.5pt" height="37.5pt" viewBox="0 0 37.5 37.5">
 <defs>
  <marker id="DefaultArrow2" markerUnits="strokeWidth" viewBox="0 0 1 1" markerWidth="1" markerHeight="1" overflow="visible" orient="auto">
   <!-- REF_ARROW_STRAIGHT (-2) -->
   <g transform="scale(0.0092592592)">
    <!-- 1/108 -->
    <path d="M -9 54 L -9 -54 L 117 0 z"/>
   </g>
  </marker>
  <marker id="DefaultArrow3" markerUnits="strokeWidth" viewBox="0 0 1 1" markerWidth="1" markerHeight="1" overflow="visible" orient="auto">
   <!-- REF_ARROW_ANGLED -->
   <g transform="scale(0.0092592592)">
    <path d="M -27 54 L -9 0 L -27 -54 L 135 0 z"/>
   </g>
  </marker>
  <marker id="DefaultArrow4" markerUnits="strokeWidth" viewBox="0 0 1 1" markerWidth="1" markerHeight="1" overflow="visible" orient="auto">
   <!-- REF_ARROW_ROUNDED -->
   <g transform="scale(0.0092592592)">
    <path d="M -9,0 L -9,-45 C -9,-51.708 2.808,-56.580 9,-54 L 117,-9 C 120.916,-7.369 126.000,-4.242 126,0 C 126,4.242 120.916,7.369 117,9 L 9,54 C 2.808,56.580 -9,51.708 -9,45 z"/>
   </g>
  </marker>
  <marker id="DefaultArrow5" markerUnits="strokeWidth" viewBox="0 0 1 1" markerWidth="1" markerHeight="1" overflow="visible" orient="auto">
   <!-- REF_ARROW_SPOT -->
   <g transform="scale(0.0092592592)">
    <path d="M -54, 0 C -54,29.807 -29.807,54 0,54 C 29.807,54 54,29.807 54,0 C 54,-29.807 29.807,-54 0,-54 C -29.807,-54 -54,-29.807 -54,0 z"/>
   </g>
  </marker>
  <marker id="DefaultArrow6" markerUnits="strokeWidth" viewBox="0 0 1 1" markerWidth="1" markerHeight="1" overflow="visible" orient="auto">
   <!-- REF_ARROW_DIAMOND -->
   <g transform="scale(0.0092592592)">
    <path d="M -63,0 L 0,63 L 63,0 L 0,-63 z"/>
   </g>
  </marker>
  <marker id="DefaultArrow7" markerUnits="strokeWidth" viewBox="0 0 1 1" markerWidth="1" markerHeight="1" overflow="visible" orient="auto">
   <!-- REF_ARROW_FEATHER -->
   <g transform="scale(0.0092592592)">
    <path d="M 18,-54 L 108,-54 L 63,0 L 108,54 L 18, 54 L -36,0 z"/>
   </g>
  </marker>
  <marker id="DefaultArrow8" markerUnits="strokeWidth" viewBox="0 0 1 1" markerWidth="1" markerHeight="1" overflow="visible" orient="auto">
   <!-- REF_ARROW_FEATHER2 -->
   <g transform="scale(0.0092592592)">
    <path d="M -36,0 L 18,-54 L 54,-54 L 18,-18 L 27,-18 L 63,-54 L 99,-54 L 63,-18 L 72,-18 L 108,-54 L 144,-54 L 90,0 L 144,54 L 108,54 L 72,18 L 63,18 L 99,54 L 63,54 L 27,18 L 18,18 L 54,54 L 18,54 z"/>
   </g>
  </marker>
  <marker id="DefaultArrow9" markerUnits="strokeWidth" viewBox="0 0 1 1" markerWidth="1" markerHeight="1" overflow="visible" orient="auto">
   <!-- REF_ARROW_HOLLOWDIAMOND -->
   <g transform="scale(0.0092592592)">
    <path d="M 0,45 L -45,0 L 0, -45 L 45, 0 z M 0, 63 L-63, 0 L 0, -63 L 63, 0 z"/>
   </g>
  </marker>
  <filter id="StainedFilter">
   <feBlend mode="multiply" in2="BackgroundImage" in="SourceGraphic" result="blend"/>
   <feComposite in="blend" in2="SourceAlpha" operator="in" result="comp"/>
  </filter>
  <filter id="BleachFilter">
   <feBlend mode="screen" in2="BackgroundImage" in="SourceGraphic" result="blend"/>
   <feComposite in="blend" in2="SourceAlpha" operator="in" result="comp"/>
  </filter>
  <filter id="InvertTransparencyBitmapFilter">
   <feComponentTransfer>
    <feFuncR type="gamma" amplitude="1.055" exponent=".416666666" offset="-0.055"/>
    <feFuncG type="gamma" amplitude="1.055" exponent=".416666666" offset="-0.055"/>
    <feFuncB type="gamma" amplitude="1.055" exponent=".416666666" offset="-0.055"/>
   </feComponentTransfer>
   <feComponentTransfer>
    <feFuncR type="linear" slope="-1" intercept="1"/>
    <feFuncG type="linear" slope="-1" intercept="1"/>
    <feFuncB type="linear" slope="-1" intercept="1"/>
    <feFuncA type="linear" slope="1" intercept="0"/>
   </feComponentTransfer>
   <feComponentTransfer>
    <feFuncR type="gamma" amplitude="1" exponent="2.4" offset="0"/>
    <feFuncG type="gamma" amplitude="1" exponent="2.4" offset="0"/>
    <feFuncB type="gamma" amplitude="1" exponent="2.4" offset="0"/>
   </feComponentTransfer>
  </filter>
 </defs>
 <g id="Document" fill="none" stroke="black" font-family="Times New Roman" font-size="16" transform="scale(1 -1)">
  <g id="Spread" transform="translate(0 -37.5)">
   <g id="icons">
    <g id="Group" stroke="none">
     <rect x="-18.748" y="-18.751" width="37.497" height="37.502" transform="translate(18.75 18.75) rotate(90)" stroke-linejoin="miter"/>
     <path d="M 18.606,3.77 C 18.456,3.8 18.369,3.843 18.464,3.816 L 18.378,3.845 C 11.497,7.751 3.883,12.483 3.03,21.56 C 2.322,31.194 13.265,35.24 18.748,29.862 C 24.231,35.24 35.174,31.194 34.467,21.56 C 33.614,12.483 26,7.751 19.119,3.845 L 19.032,3.816 C 19.127,3.843 19.04,3.8 18.89,3.77 C 19.001,3.778 18.874,3.747 18.748,3.747 C 18.622,3.747 18.495,3.778 18.606,3.77 Z M 32.972,21.685 C 33.601,30.254 23.603,33.406 19.324,28.277 L 19.322,28.276 C 19.322,28.271 19.279,28.224 19.229,28.182 L 19.157,28.143 C 19.257,28.197 19.178,28.135 19.024,28.071 C 19.149,28.115 19.06,28.068 18.889,28.031 C 18.985,28.035 18.867,28.007 18.748,28.007 C 18.629,28.007 18.511,28.035 18.607,28.031 C 18.436,28.068 18.347,28.115 18.472,28.071 C 18.318,28.135 18.239,28.197 18.339,28.143 L 18.268,28.182 C 18.214,28.225 18.169,28.275 18.174,28.276 L 18.173,28.277 C 13.894,33.406 3.896,30.254 4.525,21.685 C 5.28,13.644 11.895,9.268 18.748,5.36 C 25.601,9.268 32.216,13.644 32.972,21.685 Z M 19.499,15.751 C 19.499,17.407 20.842,18.751 22.499,18.751 C 24.155,18.751 25.499,17.407 25.499,15.751 C 25.499,14.094 24.155,12.751 22.499,12.751 C 20.842,12.751 19.499,14.094 19.499,15.751 Z M 13.737,13.698 C 13.433,13.979 13.415,14.454 13.696,14.758 L 22.699,24.497 C 22.98,24.801 23.455,24.819 23.759,24.538 C 24.063,24.257 24.081,23.782 23.8,23.478 L 14.797,13.739 C 14.516,13.435 14.041,13.417 13.737,13.698 Z M 23.999,15.751 C 23.999,16.578 23.326,17.251 22.499,17.251 C 21.671,17.251 20.999,16.578 20.999,15.751 C 20.999,14.923 21.671,14.251 22.499,14.251 C 23.326,14.251 23.999,14.923 23.999,15.751 Z M 12,22.5 C 12,24.156 13.343,25.5 15,25.5 C 16.656,25.5 18,24.156 18,22.5 C 18,20.843 16.656,19.5 15,19.5 C 13.343,19.5 12,20.843 12,22.5 Z M 16.5,22.5 C 16.5,23.327 15.827,24 15,24 C 14.172,24 13.5,23.327 13.5,22.5 C 13.5,21.672 14.172,21 15,21 C 15.827,21 16.5,21.672 16.5,22.5 Z M 18.225,28.234 C 18.191,28.265 18.176,28.276 18.174,28.276 L 18.225,28.234 Z M 19.271,28.234 L 19.322,28.276 C 19.321,28.278 19.306,28.267 19.271,28.234 Z" stroke-width="0.5" fill="#515c65" fill-rule="evenodd" marker-start="none" marker-end="none" stroke-miterlimit="79.8403193612775"/>
    </g>
   </g>
  </g>
 </g>
</svg>
