<?xml version="1.0" standalone="no"?>
<!DOCTYPE svg PUBLIC "-//W3C//DTD SVG 1.1//EN" "http://www.w3.org/Graphics/SVG/1.1/DTD/svg11.dtd">
<!--Generator: Xara Xtreme (www.xara.com), SVG filter version: 1.0.0.13-->
<svg stroke-width="0.501" stroke-linejoin="bevel" fill-rule="evenodd" xmlns:xlink="http://www.w3.org/1999/xlink" xmlns="http://www.w3.org/2000/svg" version="1.1" overflow="visible" width="37.5pt" height="37.5pt" viewBox="0 0 37.5 37.5">
 <defs>
  <marker id="DefaultArrow2" markerUnits="strokeWidth" viewBox="0 0 1 1" markerWidth="1" markerHeight="1" overflow="visible" orient="auto">
   <!-- REF_ARROW_STRAIGHT (-2) -->
   <g transform="scale(0.0092592592)">
    <!-- 1/108 -->
    <path d="M -9 54 L -9 -54 L 117 0 z"/>
   </g>
  </marker>
  <marker id="DefaultArrow3" markerUnits="strokeWidth" viewBox="0 0 1 1" markerWidth="1" markerHeight="1" overflow="visible" orient="auto">
   <!-- REF_ARROW_ANGLED -->
   <g transform="scale(0.0092592592)">
    <path d="M -27 54 L -9 0 L -27 -54 L 135 0 z"/>
   </g>
  </marker>
  <marker id="DefaultArrow4" markerUnits="strokeWidth" viewBox="0 0 1 1" markerWidth="1" markerHeight="1" overflow="visible" orient="auto">
   <!-- REF_ARROW_ROUNDED -->
   <g transform="scale(0.0092592592)">
    <path d="M -9,0 L -9,-45 C -9,-51.708 2.808,-56.580 9,-54 L 117,-9 C 120.916,-7.369 126.000,-4.242 126,0 C 126,4.242 120.916,7.369 117,9 L 9,54 C 2.808,56.580 -9,51.708 -9,45 z"/>
   </g>
  </marker>
  <marker id="DefaultArrow5" markerUnits="strokeWidth" viewBox="0 0 1 1" markerWidth="1" markerHeight="1" overflow="visible" orient="auto">
   <!-- REF_ARROW_SPOT -->
   <g transform="scale(0.0092592592)">
    <path d="M -54, 0 C -54,29.807 -29.807,54 0,54 C 29.807,54 54,29.807 54,0 C 54,-29.807 29.807,-54 0,-54 C -29.807,-54 -54,-29.807 -54,0 z"/>
   </g>
  </marker>
  <marker id="DefaultArrow6" markerUnits="strokeWidth" viewBox="0 0 1 1" markerWidth="1" markerHeight="1" overflow="visible" orient="auto">
   <!-- REF_ARROW_DIAMOND -->
   <g transform="scale(0.0092592592)">
    <path d="M -63,0 L 0,63 L 63,0 L 0,-63 z"/>
   </g>
  </marker>
  <marker id="DefaultArrow7" markerUnits="strokeWidth" viewBox="0 0 1 1" markerWidth="1" markerHeight="1" overflow="visible" orient="auto">
   <!-- REF_ARROW_FEATHER -->
   <g transform="scale(0.0092592592)">
    <path d="M 18,-54 L 108,-54 L 63,0 L 108,54 L 18, 54 L -36,0 z"/>
   </g>
  </marker>
  <marker id="DefaultArrow8" markerUnits="strokeWidth" viewBox="0 0 1 1" markerWidth="1" markerHeight="1" overflow="visible" orient="auto">
   <!-- REF_ARROW_FEATHER2 -->
   <g transform="scale(0.0092592592)">
    <path d="M -36,0 L 18,-54 L 54,-54 L 18,-18 L 27,-18 L 63,-54 L 99,-54 L 63,-18 L 72,-18 L 108,-54 L 144,-54 L 90,0 L 144,54 L 108,54 L 72,18 L 63,18 L 99,54 L 63,54 L 27,18 L 18,18 L 54,54 L 18,54 z"/>
   </g>
  </marker>
  <marker id="DefaultArrow9" markerUnits="strokeWidth" viewBox="0 0 1 1" markerWidth="1" markerHeight="1" overflow="visible" orient="auto">
   <!-- REF_ARROW_HOLLOWDIAMOND -->
   <g transform="scale(0.0092592592)">
    <path d="M 0,45 L -45,0 L 0, -45 L 45, 0 z M 0, 63 L-63, 0 L 0, -63 L 63, 0 z"/>
   </g>
  </marker>
  <filter id="StainedFilter">
   <feBlend mode="multiply" in2="BackgroundImage" in="SourceGraphic" result="blend"/>
   <feComposite in="blend" in2="SourceAlpha" operator="in" result="comp"/>
  </filter>
  <filter id="BleachFilter">
   <feBlend mode="screen" in2="BackgroundImage" in="SourceGraphic" result="blend"/>
   <feComposite in="blend" in2="SourceAlpha" operator="in" result="comp"/>
  </filter>
  <filter id="InvertTransparencyBitmapFilter">
   <feComponentTransfer>
    <feFuncR type="gamma" amplitude="1.055" exponent=".416666666" offset="-0.055"/>
    <feFuncG type="gamma" amplitude="1.055" exponent=".416666666" offset="-0.055"/>
    <feFuncB type="gamma" amplitude="1.055" exponent=".416666666" offset="-0.055"/>
   </feComponentTransfer>
   <feComponentTransfer>
    <feFuncR type="linear" slope="-1" intercept="1"/>
    <feFuncG type="linear" slope="-1" intercept="1"/>
    <feFuncB type="linear" slope="-1" intercept="1"/>
    <feFuncA type="linear" slope="1" intercept="0"/>
   </feComponentTransfer>
   <feComponentTransfer>
    <feFuncR type="gamma" amplitude="1" exponent="2.4" offset="0"/>
    <feFuncG type="gamma" amplitude="1" exponent="2.4" offset="0"/>
    <feFuncB type="gamma" amplitude="1" exponent="2.4" offset="0"/>
   </feComponentTransfer>
  </filter>
 </defs>
 <g id="Document" fill="none" stroke="black" font-family="Times New Roman" font-size="16" transform="scale(1 -1)">
  <g id="Spread" transform="translate(0 -37.5)">
   <g id="icons">
    <g id="Group" stroke="none">
     <rect x="-18.748" y="-18.751" width="37.497" height="37.502" transform="translate(18.75 18.75) rotate(90)" stroke-linejoin="miter"/>
     <path d="M 19.137,1.532 L 19.056,1.551 L 18.691,1.66 L 18.616,1.687 C 17.223,2.27 16.464,3.538 16.751,5.121 L 16.769,5.201 L 17.668,8.23 C 18.115,9.625 18.67,11.108 19.687,12.602 L 19.863,12.844 L 19.776,13.046 C 19.529,13.744 19.577,14.477 19.74,15.217 L 19.754,15.269 L 20.047,16.256 C 20.062,16.307 20.082,16.356 20.108,16.403 C 20.617,17.332 21.642,17.555 22.476,17.419 C 22.507,17.414 22.538,17.407 22.569,17.398 L 22.74,17.347 C 22.88,18.164 22.826,18.974 22.613,19.769 L 22.5,20.123 L 22.443,20.114 C 21.853,19.997 21.272,19.819 20.706,19.547 C 18.871,18.665 17.626,17.643 16.021,16.21 L 16.25,15.983 C 16.968,15.263 17.126,14.217 16.502,13.343 C 16.478,13.309 16.451,13.278 16.422,13.249 L 15.695,12.521 L 15.656,12.484 C 15.081,11.986 14.459,11.597 13.727,11.482 L 13.508,11.462 L 13.379,11.193 C 12.552,9.587 11.516,8.389 10.503,7.329 L 8.27,5.095 L 8.204,5.037 C 6.953,4.049 5.482,4.09 4.3,5.041 L 4.239,5.095 L 3.97,5.364 L 3.916,5.425 C 2.969,6.602 2.907,8.079 3.916,9.334 L 3.97,9.395 L 6.204,11.628 C 7.263,12.64 8.459,13.679 10.065,14.507 L 10.335,14.636 L 10.355,14.855 C 10.471,15.588 10.862,16.208 11.359,16.781 L 11.396,16.82 L 12.124,17.547 C 12.161,17.585 12.202,17.618 12.247,17.647 C 13.146,18.226 14.146,17.927 14.814,17.409 L 14.885,17.347 L 14.959,17.272 C 16.614,18.753 18.002,19.91 20.055,20.898 C 20.382,21.055 20.712,21.186 21.043,21.295 L 21.878,21.523 C 21.005,23.06 19.593,24.504 17.907,25.787 C 17.489,26.104 17.062,26.406 16.629,26.693 L 15.554,27.361 L 15.484,27.23 C 12.899,22.979 8.162,22.481 5.645,23.902 C 3.741,24.978 3.547,27.124 3.787,28.645 L 3.798,28.702 C 4.088,29.922 5.257,31.703 8.389,31.564 L 9.041,31.509 L 9.415,31.469 C 10.73,31.28 12.683,30.59 14.736,29.536 L 14.896,29.448 L 15.033,29.783 L 15.318,30.64 C 16.933,34.946 20.438,36.788 24.351,36.752 C 28.994,36.708 34.858,33.293 33.569,26.408 C 32.639,22.052 30.491,20.831 27.89,20.509 C 26.677,20.359 25.448,20.391 24.238,20.324 L 24.02,20.306 L 24.069,20.154 C 24.348,19.119 24.411,18.036 24.186,16.917 L 24.419,16.849 C 25.395,16.56 26.031,15.708 25.901,14.65 C 25.896,14.609 25.887,14.568 25.876,14.529 L 25.584,13.542 L 25.567,13.491 C 25.298,12.777 24.937,12.14 24.348,11.69 L 24.165,11.568 L 24.181,11.271 C 24.221,9.464 23.882,7.917 23.497,6.503 L 22.601,3.474 L 22.571,3.39 C 21.942,1.927 20.63,1.261 19.137,1.532 Z M 21.048,3.701 L 21.179,3.959 L 22.054,6.912 C 22.472,8.448 22.801,10.043 22.645,11.939 C 22.618,12.264 22.805,12.569 23.106,12.694 C 23.508,12.86 23.795,13.163 24.053,13.749 L 24.154,14 L 24.411,14.867 L 24.408,15.024 C 24.373,15.201 24.245,15.335 23.994,15.41 L 22.198,15.942 L 22.073,15.956 C 21.82,15.971 21.644,15.911 21.53,15.814 L 21.45,15.715 L 21.202,14.88 L 21.149,14.608 C 21.046,13.976 21.12,13.565 21.365,13.209 C 21.549,12.941 21.539,12.584 21.34,12.326 C 20.177,10.821 19.588,9.304 19.101,7.787 L 18.222,4.823 L 18.191,4.541 C 18.169,3.942 18.43,3.495 18.927,3.203 L 19.171,3.081 L 19.418,3.005 C 20.115,2.878 20.683,3.098 21.048,3.701 Z M 7.014,6.035 L 7.249,6.196 L 9.43,8.378 C 10.53,9.528 11.58,10.772 12.348,12.513 C 12.48,12.811 12.789,12.991 13.113,12.956 C 13.482,12.917 13.827,13.006 14.237,13.28 L 14.663,13.61 L 15.295,14.242 L 15.368,14.384 C 15.423,14.557 15.374,14.736 15.189,14.922 L 13.871,16.238 L 13.63,16.387 C 13.465,16.462 13.324,16.473 13.21,16.448 L 13.099,16.402 L 12.482,15.786 L 12.306,15.572 C 11.913,15.065 11.783,14.67 11.828,14.241 C 11.863,13.917 11.683,13.608 11.385,13.476 C 9.645,12.708 8.404,11.656 7.253,10.555 L 5.068,8.371 L 4.905,8.137 C 4.6,7.62 4.615,7.103 4.912,6.609 L 5.068,6.387 L 5.25,6.201 C 5.801,5.757 6.405,5.679 7.014,6.035 Z M 23.444,21.763 L 24.016,21.815 C 25.319,21.897 26.577,21.857 27.706,21.997 C 29.672,22.241 31.308,23.002 32.098,26.703 C 33.152,32.333 28.335,35.214 24.336,35.253 C 20.763,35.286 17.699,33.559 16.46,29.325 L 16.448,29.287 L 16.215,28.717 L 17.484,27.925 C 17.937,27.625 18.382,27.31 18.815,26.981 C 20.529,25.677 22.146,24.077 23.179,22.27 L 23.444,21.763 Z M 14.216,28.032 L 14.248,28.092 L 14.029,28.212 C 11.895,29.305 9.941,29.949 8.905,30.017 L 8.864,30.021 C 6.391,30.316 5.594,29.281 5.337,28.613 L 5.266,28.384 L 5.204,27.436 C 5.239,26.49 5.584,25.659 6.382,25.209 C 8.183,24.191 12.045,24.437 14.216,28.032 Z" stroke-width="0.5" fill="#515c65" fill-rule="evenodd" marker-start="none" marker-end="none" stroke-miterlimit="79.8403193612775"/>
    </g>
   </g>
  </g>
 </g>
</svg>
