<?xml version="1.0" standalone="no"?>
<!DOCTYPE svg PUBLIC "-//W3C//DTD SVG 1.1//EN" "http://www.w3.org/Graphics/SVG/1.1/DTD/svg11.dtd">
<!--Generator: Xara Xtreme (www.xara.com), SVG filter version: 1.0.0.13-->
<svg stroke-width="0.501" stroke-linejoin="bevel" fill-rule="evenodd" xmlns:xlink="http://www.w3.org/1999/xlink" xmlns="http://www.w3.org/2000/svg" version="1.1" overflow="visible" width="37.5pt" height="37.5pt" viewBox="0 0 37.5 37.5">
 <defs>
  <marker id="DefaultArrow2" markerUnits="strokeWidth" viewBox="0 0 1 1" markerWidth="1" markerHeight="1" overflow="visible" orient="auto">
   <!-- REF_ARROW_STRAIGHT (-2) -->
   <g transform="scale(0.0092592592)">
    <!-- 1/108 -->
    <path d="M -9 54 L -9 -54 L 117 0 z"/>
   </g>
  </marker>
  <marker id="DefaultArrow3" markerUnits="strokeWidth" viewBox="0 0 1 1" markerWidth="1" markerHeight="1" overflow="visible" orient="auto">
   <!-- REF_ARROW_ANGLED -->
   <g transform="scale(0.0092592592)">
    <path d="M -27 54 L -9 0 L -27 -54 L 135 0 z"/>
   </g>
  </marker>
  <marker id="DefaultArrow4" markerUnits="strokeWidth" viewBox="0 0 1 1" markerWidth="1" markerHeight="1" overflow="visible" orient="auto">
   <!-- REF_ARROW_ROUNDED -->
   <g transform="scale(0.0092592592)">
    <path d="M -9,0 L -9,-45 C -9,-51.708 2.808,-56.580 9,-54 L 117,-9 C 120.916,-7.369 126.000,-4.242 126,0 C 126,4.242 120.916,7.369 117,9 L 9,54 C 2.808,56.580 -9,51.708 -9,45 z"/>
   </g>
  </marker>
  <marker id="DefaultArrow5" markerUnits="strokeWidth" viewBox="0 0 1 1" markerWidth="1" markerHeight="1" overflow="visible" orient="auto">
   <!-- REF_ARROW_SPOT -->
   <g transform="scale(0.0092592592)">
    <path d="M -54, 0 C -54,29.807 -29.807,54 0,54 C 29.807,54 54,29.807 54,0 C 54,-29.807 29.807,-54 0,-54 C -29.807,-54 -54,-29.807 -54,0 z"/>
   </g>
  </marker>
  <marker id="DefaultArrow6" markerUnits="strokeWidth" viewBox="0 0 1 1" markerWidth="1" markerHeight="1" overflow="visible" orient="auto">
   <!-- REF_ARROW_DIAMOND -->
   <g transform="scale(0.0092592592)">
    <path d="M -63,0 L 0,63 L 63,0 L 0,-63 z"/>
   </g>
  </marker>
  <marker id="DefaultArrow7" markerUnits="strokeWidth" viewBox="0 0 1 1" markerWidth="1" markerHeight="1" overflow="visible" orient="auto">
   <!-- REF_ARROW_FEATHER -->
   <g transform="scale(0.0092592592)">
    <path d="M 18,-54 L 108,-54 L 63,0 L 108,54 L 18, 54 L -36,0 z"/>
   </g>
  </marker>
  <marker id="DefaultArrow8" markerUnits="strokeWidth" viewBox="0 0 1 1" markerWidth="1" markerHeight="1" overflow="visible" orient="auto">
   <!-- REF_ARROW_FEATHER2 -->
   <g transform="scale(0.0092592592)">
    <path d="M -36,0 L 18,-54 L 54,-54 L 18,-18 L 27,-18 L 63,-54 L 99,-54 L 63,-18 L 72,-18 L 108,-54 L 144,-54 L 90,0 L 144,54 L 108,54 L 72,18 L 63,18 L 99,54 L 63,54 L 27,18 L 18,18 L 54,54 L 18,54 z"/>
   </g>
  </marker>
  <marker id="DefaultArrow9" markerUnits="strokeWidth" viewBox="0 0 1 1" markerWidth="1" markerHeight="1" overflow="visible" orient="auto">
   <!-- REF_ARROW_HOLLOWDIAMOND -->
   <g transform="scale(0.0092592592)">
    <path d="M 0,45 L -45,0 L 0, -45 L 45, 0 z M 0, 63 L-63, 0 L 0, -63 L 63, 0 z"/>
   </g>
  </marker>
  <filter id="StainedFilter">
   <feBlend mode="multiply" in2="BackgroundImage" in="SourceGraphic" result="blend"/>
   <feComposite in="blend" in2="SourceAlpha" operator="in" result="comp"/>
  </filter>
  <filter id="BleachFilter">
   <feBlend mode="screen" in2="BackgroundImage" in="SourceGraphic" result="blend"/>
   <feComposite in="blend" in2="SourceAlpha" operator="in" result="comp"/>
  </filter>
  <filter id="InvertTransparencyBitmapFilter">
   <feComponentTransfer>
    <feFuncR type="gamma" amplitude="1.055" exponent=".416666666" offset="-0.055"/>
    <feFuncG type="gamma" amplitude="1.055" exponent=".416666666" offset="-0.055"/>
    <feFuncB type="gamma" amplitude="1.055" exponent=".416666666" offset="-0.055"/>
   </feComponentTransfer>
   <feComponentTransfer>
    <feFuncR type="linear" slope="-1" intercept="1"/>
    <feFuncG type="linear" slope="-1" intercept="1"/>
    <feFuncB type="linear" slope="-1" intercept="1"/>
    <feFuncA type="linear" slope="1" intercept="0"/>
   </feComponentTransfer>
   <feComponentTransfer>
    <feFuncR type="gamma" amplitude="1" exponent="2.4" offset="0"/>
    <feFuncG type="gamma" amplitude="1" exponent="2.4" offset="0"/>
    <feFuncB type="gamma" amplitude="1" exponent="2.4" offset="0"/>
   </feComponentTransfer>
  </filter>
 </defs>
 <g id="Document" fill="none" stroke="black" font-family="Times New Roman" font-size="16" transform="scale(1 -1)">
  <g id="Spread" transform="translate(0 -37.5)">
   <g id="icons">
    <g id="Group" stroke="none">
     <rect x="-18.748" y="-18.751" width="37.497" height="37.502" transform="translate(18.75 18.75) rotate(90)" stroke-linejoin="miter"/>
     <path d="M 10.381,5.35 L 5.349,10.382 C 4.45,11.281 4.45,12.742 5.351,13.642 L 6.348,14.629 L 5.359,15.619 C 4.46,16.518 4.46,17.98 5.359,18.879 L 6.251,19.771 C 7.151,20.669 8.612,20.67 9.511,19.771 L 12.471,16.81 L 21.437,25.776 L 18.477,28.737 C 17.578,29.636 17.579,31.097 18.477,31.997 L 19.369,32.889 C 20.268,33.788 21.73,33.788 22.629,32.889 L 23.618,31.899 L 24.606,32.897 C 25.506,33.798 26.967,33.798 27.866,32.899 L 32.898,27.867 C 33.797,26.968 33.797,25.506 32.899,24.608 L 31.908,23.608 L 32.888,22.629 C 33.787,21.73 33.787,20.268 32.888,19.369 L 31.996,18.477 C 31.097,17.578 29.636,17.578 28.737,18.477 L 25.777,21.435 L 16.812,12.47 L 19.771,9.511 C 20.67,8.612 20.67,7.151 19.771,6.252 L 18.879,5.36 C 17.98,4.461 16.518,4.461 15.619,5.36 L 14.639,6.339 L 13.64,5.349 C 12.742,4.451 11.28,4.451 10.381,5.35 Z M 12.581,6.412 L 13.579,7.399 L 7.409,13.569 L 6.408,12.579 C 6.097,12.267 6.097,11.756 6.41,11.443 L 11.442,6.411 C 11.755,6.098 12.267,6.098 12.581,6.412 Z M 17.818,6.421 L 18.71,7.313 C 19.023,7.626 19.023,8.137 18.71,8.45 L 15.222,11.936 L 15.22,11.939 L 15.217,11.941 L 8.45,18.71 C 8.137,19.023 7.626,19.024 7.312,18.71 L 6.42,17.818 C 6.107,17.505 6.107,16.993 6.42,16.68 L 16.68,6.421 C 16.993,6.108 17.505,6.108 17.818,6.421 Z M 15.751,13.531 L 24.716,22.496 L 22.498,24.715 L 13.532,15.749 L 15.751,13.531 Z M 30.935,19.538 L 31.827,20.43 C 32.14,20.743 32.14,21.255 31.827,21.568 L 21.568,31.828 C 21.255,32.141 20.743,32.141 20.43,31.828 L 19.538,30.936 C 19.224,30.622 19.225,30.111 19.538,29.798 L 26.306,23.03 L 26.309,23.028 L 26.311,23.025 L 29.798,19.538 C 30.111,19.225 30.622,19.225 30.935,19.538 Z M 30.848,24.668 L 31.836,25.667 C 32.15,25.981 32.15,26.493 31.837,26.806 L 26.805,31.838 C 26.492,32.151 25.981,32.151 25.669,31.84 L 24.678,30.838 L 30.848,24.668 Z" stroke-width="0.5" fill="#515c65" fill-rule="evenodd" marker-start="none" marker-end="none" stroke-miterlimit="79.8403193612775"/>
    </g>
   </g>
  </g>
 </g>
</svg>
