<?xml version="1.0" standalone="no"?>
<!DOCTYPE svg PUBLIC "-//W3C//DTD SVG 1.1//EN" "http://www.w3.org/Graphics/SVG/1.1/DTD/svg11.dtd">
<!--Generator: Xara Xtreme (www.xara.com), SVG filter version: 1.0.0.13-->
<svg stroke-width="0.501" stroke-linejoin="bevel" fill-rule="evenodd" xmlns:xlink="http://www.w3.org/1999/xlink" xmlns="http://www.w3.org/2000/svg" version="1.1" overflow="visible" width="37.5pt" height="37.5pt" viewBox="0 0 37.5 37.5">
 <defs>
  <marker id="DefaultArrow2" markerUnits="strokeWidth" viewBox="0 0 1 1" markerWidth="1" markerHeight="1" overflow="visible" orient="auto">
   <!-- REF_ARROW_STRAIGHT (-2) -->
   <g transform="scale(0.0092592592)">
    <!-- 1/108 -->
    <path d="M -9 54 L -9 -54 L 117 0 z"/>
   </g>
  </marker>
  <marker id="DefaultArrow3" markerUnits="strokeWidth" viewBox="0 0 1 1" markerWidth="1" markerHeight="1" overflow="visible" orient="auto">
   <!-- REF_ARROW_ANGLED -->
   <g transform="scale(0.0092592592)">
    <path d="M -27 54 L -9 0 L -27 -54 L 135 0 z"/>
   </g>
  </marker>
  <marker id="DefaultArrow4" markerUnits="strokeWidth" viewBox="0 0 1 1" markerWidth="1" markerHeight="1" overflow="visible" orient="auto">
   <!-- REF_ARROW_ROUNDED -->
   <g transform="scale(0.0092592592)">
    <path d="M -9,0 L -9,-45 C -9,-51.708 2.808,-56.580 9,-54 L 117,-9 C 120.916,-7.369 126.000,-4.242 126,0 C 126,4.242 120.916,7.369 117,9 L 9,54 C 2.808,56.580 -9,51.708 -9,45 z"/>
   </g>
  </marker>
  <marker id="DefaultArrow5" markerUnits="strokeWidth" viewBox="0 0 1 1" markerWidth="1" markerHeight="1" overflow="visible" orient="auto">
   <!-- REF_ARROW_SPOT -->
   <g transform="scale(0.0092592592)">
    <path d="M -54, 0 C -54,29.807 -29.807,54 0,54 C 29.807,54 54,29.807 54,0 C 54,-29.807 29.807,-54 0,-54 C -29.807,-54 -54,-29.807 -54,0 z"/>
   </g>
  </marker>
  <marker id="DefaultArrow6" markerUnits="strokeWidth" viewBox="0 0 1 1" markerWidth="1" markerHeight="1" overflow="visible" orient="auto">
   <!-- REF_ARROW_DIAMOND -->
   <g transform="scale(0.0092592592)">
    <path d="M -63,0 L 0,63 L 63,0 L 0,-63 z"/>
   </g>
  </marker>
  <marker id="DefaultArrow7" markerUnits="strokeWidth" viewBox="0 0 1 1" markerWidth="1" markerHeight="1" overflow="visible" orient="auto">
   <!-- REF_ARROW_FEATHER -->
   <g transform="scale(0.0092592592)">
    <path d="M 18,-54 L 108,-54 L 63,0 L 108,54 L 18, 54 L -36,0 z"/>
   </g>
  </marker>
  <marker id="DefaultArrow8" markerUnits="strokeWidth" viewBox="0 0 1 1" markerWidth="1" markerHeight="1" overflow="visible" orient="auto">
   <!-- REF_ARROW_FEATHER2 -->
   <g transform="scale(0.0092592592)">
    <path d="M -36,0 L 18,-54 L 54,-54 L 18,-18 L 27,-18 L 63,-54 L 99,-54 L 63,-18 L 72,-18 L 108,-54 L 144,-54 L 90,0 L 144,54 L 108,54 L 72,18 L 63,18 L 99,54 L 63,54 L 27,18 L 18,18 L 54,54 L 18,54 z"/>
   </g>
  </marker>
  <marker id="DefaultArrow9" markerUnits="strokeWidth" viewBox="0 0 1 1" markerWidth="1" markerHeight="1" overflow="visible" orient="auto">
   <!-- REF_ARROW_HOLLOWDIAMOND -->
   <g transform="scale(0.0092592592)">
    <path d="M 0,45 L -45,0 L 0, -45 L 45, 0 z M 0, 63 L-63, 0 L 0, -63 L 63, 0 z"/>
   </g>
  </marker>
  <filter id="StainedFilter">
   <feBlend mode="multiply" in2="BackgroundImage" in="SourceGraphic" result="blend"/>
   <feComposite in="blend" in2="SourceAlpha" operator="in" result="comp"/>
  </filter>
  <filter id="BleachFilter">
   <feBlend mode="screen" in2="BackgroundImage" in="SourceGraphic" result="blend"/>
   <feComposite in="blend" in2="SourceAlpha" operator="in" result="comp"/>
  </filter>
  <filter id="InvertTransparencyBitmapFilter">
   <feComponentTransfer>
    <feFuncR type="gamma" amplitude="1.055" exponent=".416666666" offset="-0.055"/>
    <feFuncG type="gamma" amplitude="1.055" exponent=".416666666" offset="-0.055"/>
    <feFuncB type="gamma" amplitude="1.055" exponent=".416666666" offset="-0.055"/>
   </feComponentTransfer>
   <feComponentTransfer>
    <feFuncR type="linear" slope="-1" intercept="1"/>
    <feFuncG type="linear" slope="-1" intercept="1"/>
    <feFuncB type="linear" slope="-1" intercept="1"/>
    <feFuncA type="linear" slope="1" intercept="0"/>
   </feComponentTransfer>
   <feComponentTransfer>
    <feFuncR type="gamma" amplitude="1" exponent="2.4" offset="0"/>
    <feFuncG type="gamma" amplitude="1" exponent="2.4" offset="0"/>
    <feFuncB type="gamma" amplitude="1" exponent="2.4" offset="0"/>
   </feComponentTransfer>
  </filter>
 </defs>
 <g id="Document" fill="none" stroke="black" font-family="Times New Roman" font-size="16" transform="scale(1 -1)">
  <g id="Spread" transform="translate(0 -37.5)">
   <g id="icons">
    <g id="Group" stroke="none">
     <rect x="-18.748" y="-18.751" width="37.497" height="37.502" transform="translate(18.75 18.75) rotate(90)" stroke-linejoin="miter"/>
     <path d="M 3.746,18.749 C 3.746,27.444 10.803,34.502 19.499,34.502 C 28.194,34.502 35.252,27.444 35.252,18.749 C 35.252,10.053 28.194,2.996 19.499,2.996 C 10.803,2.996 3.746,10.053 3.746,18.749 Z M 33.752,18.749 C 33.752,26.615 27.365,33.002 19.499,33.002 C 11.632,33.002 5.246,26.615 5.246,18.749 C 5.246,10.882 11.632,4.496 19.499,4.496 C 27.365,4.496 33.752,10.882 33.752,18.749 Z M 6.747,18.749 C 6.747,25.786 12.459,31.498 19.499,31.498 C 26.538,31.498 32.251,25.786 32.251,18.749 C 32.251,11.711 26.538,6 19.499,6 C 12.459,6 6.747,11.711 6.747,18.749 Z M 30.751,18.749 C 30.751,24.957 25.709,29.998 19.499,29.998 C 13.288,29.998 8.247,24.957 8.247,18.749 C 8.247,12.54 13.288,7.5 19.499,7.5 C 25.709,7.5 30.751,12.54 30.751,18.749 Z M 18.748,11.996 C 18.748,12.41 19.084,12.747 19.499,12.747 C 22.812,12.747 25.502,15.436 25.502,18.749 C 25.502,20.268 24.935,21.658 24.001,22.716 L 24.001,21.75 C 24.001,21.335 23.664,20.999 23.25,20.999 C 22.835,20.999 22.499,21.335 22.499,21.75 L 22.498,24.178 C 22.461,24.311 22.46,24.453 22.498,24.588 L 22.499,24.75 C 22.499,25.164 22.835,25.501 23.25,25.501 L 26.25,25.501 C 26.664,25.501 27.001,25.164 27.001,24.75 C 27.001,24.335 26.664,23.999 26.25,23.999 L 24.858,23.999 C 26.184,22.646 27.004,20.792 27.004,18.749 C 27.004,14.607 23.641,11.245 19.499,11.245 C 19.084,11.245 18.748,11.581 18.748,11.996 Z M 11.997,12.748 C 11.997,13.162 12.333,13.499 12.748,13.499 L 14.137,13.499 C 12.812,14.851 11.994,16.705 11.994,18.749 C 11.994,22.89 15.356,26.253 19.499,26.253 C 19.913,26.253 20.25,25.916 20.25,25.502 C 20.25,25.087 19.913,24.751 19.499,24.751 C 16.185,24.751 13.496,22.061 13.496,18.749 C 13.496,17.227 14.062,15.837 14.996,14.779 L 14.997,15.748 C 14.997,16.162 15.333,16.499 15.748,16.499 C 16.162,16.499 16.499,16.162 16.499,15.748 L 16.499,13.234 C 16.51,13.16 16.509,13.084 16.498,13.009 L 16.499,12.748 C 16.499,12.333 16.162,11.997 15.748,11.997 L 12.748,11.997 C 12.333,11.997 11.997,12.333 11.997,12.748 Z M 17.244,18.749 C 17.244,19.993 18.254,21.005 19.499,21.005 C 20.743,21.005 21.754,19.993 21.754,18.749 C 21.754,17.504 20.743,16.493 19.499,16.493 C 18.254,16.493 17.244,17.504 17.244,18.749 Z M 20.254,18.749 C 20.254,19.166 19.914,19.505 19.499,19.505 C 19.083,19.505 18.744,19.166 18.744,18.749 C 18.744,18.331 19.083,17.993 19.499,17.993 C 19.914,17.993 20.254,18.331 20.254,18.749 Z" stroke-width="0.5" fill="#515c65" fill-rule="evenodd" marker-start="none" marker-end="none" stroke-miterlimit="79.8403193612775"/>
    </g>
   </g>
  </g>
 </g>
</svg>
